<svg width="500" height="500" fill="none" xmlns="http://www.w3.org/2000/svg"><path d="M140.13 162.7c14.26-14.07 14.34-35.69 10.48-54.45-.65-3.13-.87-6.51-2.84-9-1.97-2.49-5.79-3.8-8.38-2-2.15 1.5-2.71 4.4-3.63 6.87a18.747 18.747 0 0 1-6.18 8.32c-1.83 1.38-4.2 2.44-6.37 1.69-3-1-3.94-4.73-4.45-7.87l-2.88-17.53a29.836 29.836 0 0 0-2.54-9.15c-1.48-2.8-4.11-5.2-7.23-5.52-3.12-.32-6.51 2-6.62 5.19.104 1.318.298 2.628.58 3.92.13 1.32-.23 2.86-1.4 3.43-1.17.57-2.59-.09-3.69-.85-3.77-2.61-6.66-6.31-9.4-10-2.74-3.69-5.45-7.51-9-10.46-3.55-2.95-8-5-12.58-4.47-4.58.53-8.83 4.09-9.21 8.69-.38 4.6 3 8.65 6.37 11.75a71.25 71.25 0 0 0 16.96 11.37 5.81 5.81 0 0 1 2.88 2.2c1 2-.58 4.39-2.53 5.42-2.2 1.18-4.77 1.37-7.17 2.08-2.4.71-4.85 2.23-5.38 4.7-.74 3.42 2.51 6.32 5.52 8.06a60.686 60.686 0 0 0 19.48 7.21c2.45.45 5 .77 7.13 2.07 2.13 1.3 3.74 3.93 3 6.33-.74 2.4-3.51 3.6-6 3.56-2.49-.04-4.88-1-7.32-1.45-4.59-.89-10.09.36-12.22 4.55a10.059 10.059 0 0 0 .45 8.95 23.116 23.116 0 0 0 6.04 6.93 61.183 61.183 0 0 0 28.81 13.68c10.57 1.75 20 1.11 29.29-4.22" fill="#EBEBEB"/><path d="M58.61 64.42c.107.096.225.18.35.25l1.07.67c.95.58 2.34 1.45 4.1 2.61a118.33 118.33 0 0 1 14.18 10.87c2.82 2.5 5.81 5.37 9 8.52 3.19 3.15 6.48 6.53 9.86 10.22a145.724 145.724 0 0 1 10 12.07c1.61 2.19 3.12 4.51 4.65 6.88l4.65 7.2A290.571 290.571 0 0 1 132.76 152a141.556 141.556 0 0 1 9.61 24.81 103.571 103.571 0 0 1 3.32 17.64c.19 2.11.31 3.76.35 4.88 0 .53.05.95.07 1.27-.01.143-.01.287 0 .43a2.06 2.06 0 0 0 0-.43v-1.28c0-1.12-.09-2.77-.24-4.89a99.31 99.31 0 0 0-3.15-17.73 139.31 139.31 0 0 0-9.53-24.94 283.857 283.857 0 0 0-16.31-28.32l-4.65-7.2c-1.54-2.36-3.06-4.7-4.69-6.9A138.164 138.164 0 0 0 97.51 97.2c-3.39-3.7-6.75-7.08-9.91-10.2-3.16-3.12-6.17-6-9-8.49a114.003 114.003 0 0 0-14.34-10.76c-1.79-1.13-3.2-2-4.17-2.51L59 64.62a2.812 2.812 0 0 0-.39-.2Z" fill="#E0E0E0"/><path d="M107.43 109.29a6.57 6.57 0 0 0 .07-1.38v-3.79c-.09-3.19-.36-7.6-.68-12.46-.32-4.86-.54-9.26-.58-12.45v-3.77a6.34 6.34 0 0 0-.06-1.39 6.352 6.352 0 0 0-.17 1.38c-.08.89-.13 2.18-.16 3.78-.06 3.2.08 7.62.41 12.49.33 4.87.62 9.12.85 12.44.1 1.5.17 2.76.24 3.77a5.19 5.19 0 0 0 .08 1.38ZM65.86 108.65a8.734 8.734 0 0 0 1.64-.08c1-.09 2.57-.22 4.45-.32 3.76-.23 9-.37 14.7-.27 5.7.1 10.94.42 14.7.76 1.87.16 3.39.33 4.44.44a8.743 8.743 0 0 0 1.64.11 9.024 9.024 0 0 0-1.61-.34c-1-.18-2.56-.41-4.43-.62-3.76-.45-9-.84-14.73-.94a143.57 143.57 0 0 0-14.74.44c-1.88.16-3.4.35-4.44.51a8.753 8.753 0 0 0-1.62.31ZM132.62 151.05c.087-.171.151-.352.19-.54.12-.42.26-.94.44-1.57.38-1.37.87-3.37 1.44-5.84 1.16-4.95 2.54-11.83 4-19.44 1.46-7.61 2.73-14.51 3.78-19.47.52-2.41.95-4.4 1.26-5.87.14-.64.25-1.17.34-1.61.052-.182.076-.37.07-.56a2.874 2.874 0 0 0-.19.54c-.12.42-.26.94-.44 1.57-.37 1.37-.86 3.36-1.44 5.84-1.16 4.94-2.54 11.83-4 19.44-1.46 7.61-2.73 14.46-3.78 19.46-.52 2.41-.94 4.4-1.26 5.87l-.33 1.6a2.23 2.23 0 0 0-.08.58ZM76.15 143c.185.064.376.108.57.13l1.64.25 6 .88c5.11.74 12.15 1.85 19.93 3.08 7.78 1.23 14.84 2.28 20 2.91 2.56.32 4.63.56 6.07.69l1.64.06c.192.028.388.028.58 0a2.647 2.647 0 0 0-.57-.13l-1.64-.25-6-.88c-5.11-.74-12.15-1.85-19.93-3.08-7.78-1.23-14.84-2.28-20-2.92-2.57-.31-4.64-.55-6.08-.69l-1.63-.05a2.013 2.013 0 0 0-.58 0ZM454.91 109.39s-10.21-5-18.83 19c-8.62 24-11.32 37.52-11.32 37.52s-2.43 5.1-6.07 2.43c-3.64-2.67-9.18-10.86-14.49-8.59-5.51 2.36-6.58 9-4.3 18.21 2.28 9.21 6.53 29.64 6.91 31.49.38 1.85-.34 4.64-3.11 3.22-2.77-1.42-19.47-15.87-25.85-7.53-6.38 8.34 4.19 33 5.3 35.73 1.11 2.73.7 4-.55 4.86-1.25.86-6.4-4.52-11.32-8.43s-11.32-7.59-14.59-2.47c-3.27 5.12-2.08 24.49 20.17 53.38L388 300.87l16.73-3.07c35.39-8.76 48.39-23.17 49-29.22.61-6.05-6.67-7.15-12.95-7.15-6.28 0-13.68 1-14.12-.45-.44-1.45.05-2.7 2.6-4.14 2.55-1.44 26.2-14.17 26.4-24.67.2-10.5-21.87-9.59-24.92-10.2-3.05-.61-1.85-3.26-.43-4.45 1.42-1.19 17.48-14.54 25-20.35 7.52-5.81 10.81-11.65 8-16.92-2.74-5.09-12.18-2.14-16.68-2.31-4.5-.17-3.24-5.68-3.24-5.68s6.32-12.27 14.5-36.41c8.18-24.14-3.23-26.55-3.23-26.55" fill="#E0E0E0"/><path d="M447.15 130.85s0 .18-.15.51-.27.86-.48 1.5c-.43 1.32-1.07 3.25-1.89 5.72-1.64 5-4.08 12.13-7.12 21-6.08 17.7-14.69 42.08-24.27 69s-18.24 51.21-24.42 68.88c-3.07 8.82-5.56 16-7.28 20.93l-2 5.69c-.23.63-.4 1.12-.53 1.47-.13.35-.19.5-.19.5s0-.18.14-.51.28-.86.48-1.5c.44-1.33 1.08-3.25 1.89-5.72 1.65-5 4.08-12.13 7.13-21 6.08-17.7 14.68-42.08 24.27-69s18.25-51.25 24.42-68.92c3.07-8.82 5.55-16 7.28-20.93.86-2.45 1.52-4.37 2-5.69.23-.63.41-1.12.53-1.47.12-.35.19-.46.19-.46Z" fill="#EBEBEB"/><path d="M411.5 171.47c.237.333.429.696.57 1.08.34.71.8 1.76 1.35 3 1.1 2.59 2.53 6.2 4 10.22l3.82 10.3c.46 1.23.86 2.27 1.17 3.11.171.372.302.761.39 1.16a5.728 5.728 0 0 1-.58-1.08c-.33-.71-.79-1.76-1.33-3.06-1.08-2.6-2.46-6.23-4-10.25s-2.85-7.53-3.89-10.26l-1.19-3.11a6.284 6.284 0 0 1-.31-1.11ZM424.42 200.49c-.06-.13 7.26-3.41 16.35-7.32 9.09-3.91 16.5-7 16.56-6.83.06.17-7.26 3.41-16.35 7.32-9.09 3.91-16.5 6.96-16.56 6.83ZM407.83 241.13a6.255 6.255 0 0 1 1.23-.21l3.38-.42c2.84-.35 6.77-.86 11.08-1.58 4.31-.72 8.2-1.48 11-2.07l3.33-.69a6.493 6.493 0 0 1 1.23-.2 5.008 5.008 0 0 1-1.18.4c-.78.22-1.9.52-3.3.85-2.79.68-6.67 1.52-11 2.23s-8.27 1.17-11.14 1.43c-1.43.13-2.59.22-3.39.25a5.47 5.47 0 0 1-1.24.01ZM390.37 217.45c.29.258.551.547.78.86l2 2.45c1.64 2.09 3.23 5.82 6.32 8.21 2.44 3.23 4.63 6.17 6.19 8.31l1.83 2.56c.245.306.45.642.61 1a5.244 5.244 0 0 1-.77-.86c-.54-.67-1.19-1.49-2-2.45-1.64-2.09-3.87-5-6.31-8.22-2.44-3.22-4.64-6.16-6.2-8.3l-1.82-2.58c-.248-.3-.46-.629-.63-.98ZM371.17 251.47c.363.342.697.714 1 1.11l2.53 3.13c2.11 2.66 5 6.36 8.18 10.46 3.18 4.1 6 7.84 8.05 10.56l2.4 3.24c.309.385.583.797.82 1.23a7.472 7.472 0 0 1-1-1.11l-2.53-3.09c-2.12-2.66-5-6.36-8.18-10.47-3.18-4.11-6-7.83-8.06-10.55L372 252.7a7.41 7.41 0 0 1-.83-1.23ZM393.78 280.33a10.932 10.932 0 0 1 1.55-.31l4.26-.68c3.59-.58 8.55-1.4 14-2.46 5.45-1.06 10.36-2.13 13.91-2.94l4.21-.95a8.42 8.42 0 0 1 1.55-.29c-.488.199-.989.362-1.5.49-1 .28-2.41.67-4.17 1.11-3.53.9-8.44 2.05-13.9 3.1-5.46 1.05-10.43 1.82-14 2.31-1.81.24-3.27.41-4.29.52a8.45 8.45 0 0 1-1.62.1Z" fill="#EBEBEB"/><path d="M459.72 453c0 .15-97.32.26-217.35.26S25 453.16 25 453s97.31-.26 217.38-.26 217.34.13 217.34.26Z" fill="#263238"/><path d="M394.75 65.52H139.96v319.64h254.79V65.52Z" fill="#F5F5F5"/><path d="m140 65.52 254.79-.22h.21V385.41H139.72v-.23c.14-189.94.23-317.59.23-319.63 0 2 .1 129.69.24 319.63l-.24-.23h254.79l-.26.26V65.61l.22.21-254.7-.3Z" fill="#263238"/><path d="M238.12 90.86h2.56v11.61h7.2v2.16h-9.76V90.86ZM248.7 99.38a5.598 5.598 0 0 1 3.31-5.322 5.599 5.599 0 1 1 2.28 10.712 5.287 5.287 0 0 1-5.59-5.39Zm8.72 0a3.118 3.118 0 0 0-3.823-2.869 3.121 3.121 0 0 0 .693 6.159 3.042 3.042 0 0 0 2.299-.946 3.044 3.044 0 0 0 .831-2.344ZM272.68 94.13V103c0 3.81-2 5.55-5.67 5.55a8.367 8.367 0 0 1-5.11-1.5l1.1-1.85a6.339 6.339 0 0 0 3.88 1.26c2.32 0 3.34-1.06 3.34-3.19v-.55a4.616 4.616 0 0 1-3.52 1.4 5.073 5.073 0 0 1-3.737-1.404 5.08 5.08 0 0 1 3.737-8.746 4.542 4.542 0 0 1 3.64 1.52v-1.4l2.34.04Zm-2.42 4.94a3.2 3.2 0 1 0-3.19 3 2.997 2.997 0 0 0 3.19-3ZM275.57 90.92a1.5 1.5 0 0 1 1.57-1.47 1.475 1.475 0 0 1 1.09.369 1.474 1.474 0 0 1 .49 1.041 1.578 1.578 0 0 1-2.628 1.088 1.58 1.58 0 0 1-.522-1.028Zm.33 3.21h2.46v10.5h-2.46v-10.5ZM291.93 98.61v6h-2.46v-5.7c0-1.87-.92-2.77-2.49-2.77-1.75 0-2.94 1.06-2.94 3.16v5.31h-2.45V94.13h2.34v1.36a4.52 4.52 0 0 1 3.62-1.49c2.51 0 4.38 1.45 4.38 4.61Z" fill="#000"/><path d="M309.78 83.77a5.15 5.15 0 0 1 .37 4 9.073 9.073 0 0 1-2.15 3.54 15.998 15.998 0 0 1-7.18 4c-.66-2.9.94-6 1.85-7.46 1.43-2.37 5.47-5.78 7.1-4.08M300.34 100.39a4.388 4.388 0 0 1 3.66-2.54 5.884 5.884 0 0 1 4.27 1.46 2.488 2.488 0 0 1 1 1.8 1.913 1.913 0 0 1-1.1 1.56 4.004 4.004 0 0 1-2 .29c-2.29-.17-4.47-.74-5.85-2.57" fill="#FF725E"/><path d="M294.57 103.79a8.03 8.03 0 0 1 1.27-1.23 8.119 8.119 0 0 1 1.61-1.06 17.332 17.332 0 0 1 2.15-1 8.79 8.79 0 0 1 4.25-.49 5.89 5.89 0 0 1 1.26.33c.155.048.3.123.43.22 0 0-.65-.22-1.72-.34a9.491 9.491 0 0 0-4.12.56c-.723.274-1.431.588-2.12.94a8.742 8.742 0 0 0-1.61 1c-.442.388-.909.746-1.4 1.07Z" fill="#263238"/><path d="M306.94 86.64a5.762 5.762 0 0 1-.46.78c-.31.48-.76 1.18-1.33 2a242.02 242.02 0 0 1-4.58 6.6 167.21 167.21 0 0 1-4.85 6.42c-.64.81-1.17 1.45-1.54 1.89a5.601 5.601 0 0 1-.6.66c.145-.26.316-.504.51-.73l1.46-2c1.24-1.64 2.94-3.91 4.77-6.46l4.68-6.46 1.42-2c.153-.248.327-.482.52-.7Z" fill="#263238"/><path d="M297 99.22a10.306 10.306 0 0 0-1.38-9.3c-.49-.67-1.24-1.34-2-1.14-.76.2-1.16 1.15-1.26 2a8.776 8.776 0 0 0 4.53 8.64" fill="#FF725E"/><path d="M295 92.26s.11.13.27.39c.16.26.36.64.6 1.13a11.626 11.626 0 0 1 1.13 4.07 7.41 7.41 0 0 1-.22 2.34A6.695 6.695 0 0 1 296 102a7.1 7.1 0 0 1-.76 1 2.02 2.02 0 0 1-.33.33c-.05 0 .39-.55.91-1.48a7.533 7.533 0 0 0 .67-1.72 7.47 7.47 0 0 0 .19-2.25 13.095 13.095 0 0 0-1.06-4c-.234-.53-.441-1.07-.62-1.62ZM166.26 137v.73h-5.69v-8.05h5.52v.74h-4.67v2.86h4.16v.72h-4.16v3h4.84ZM178.07 134.2v3.51h-.81v-3.43c0-1.27-.65-1.93-1.74-1.93a2.006 2.006 0 0 0-1.486.651 2.02 2.02 0 0 0-.42.715 1.986 1.986 0 0 0-.094.824v3.17h-.81v-3.43c0-1.27-.65-1.93-1.75-1.93a2.006 2.006 0 0 0-1.486.651 2.004 2.004 0 0 0-.514 1.539v3.17h-.81v-6.05h.78v1.11a2.429 2.429 0 0 1 2.22-1.15 2.17 2.17 0 0 1 2.15 1.27 2.643 2.643 0 0 1 2.39-1.27 2.282 2.282 0 0 1 2.294 1.59c.101.32.13.658.086.99ZM184.86 134v3.75h-.79v-.94a2.277 2.277 0 0 1-2.08 1c-1.37 0-2.21-.71-2.21-1.76s.6-1.71 2.34-1.71H184v-.37c0-1-.59-1.6-1.72-1.6a3.135 3.135 0 0 0-2 .71l-.37-.61a3.89 3.89 0 0 1 2.46-.81 2.155 2.155 0 0 1 1.824.554 2.162 2.162 0 0 1 .666 1.786Zm-.86 1.9v-1h-1.9c-1.17 0-1.55.46-1.55 1.08 0 .62.56 1.14 1.53 1.14a1.94 1.94 0 0 0 1.92-1.22ZM186.89 129.75a.579.579 0 0 1 .6-.57.56.56 0 0 1 .412.156.58.58 0 0 1 .178.404.6.6 0 0 1-.169.424.587.587 0 0 1-.421.176.6.6 0 0 1-.424-.169.587.587 0 0 1-.176-.421Zm.18 1.91h.82v6.05h-.82v-6.05ZM190.17 129.18h.83v8.53h-.81l-.02-8.53ZM200.84 134v3.75h-.78v-.94a2.283 2.283 0 0 1-2.09 1c-1.36 0-2.2-.71-2.2-1.76s.59-1.71 2.33-1.71h1.9v-.37c0-1-.58-1.6-1.71-1.6a3.111 3.111 0 0 0-2 .71l-.37-.61a3.865 3.865 0 0 1 2.46-.81 2.154 2.154 0 0 1 1.803.568 2.156 2.156 0 0 1 .657 1.772Zm-.84 1.9v-1h-1.9c-1.17 0-1.55.46-1.55 1.08 0 .62.56 1.14 1.53 1.14a1.94 1.94 0 0 0 1.92-1.22ZM208.6 129.18v8.53h-.78v-1.19a2.619 2.619 0 0 1-2.34 1.25 3.081 3.081 0 0 1 0-6.15 2.655 2.655 0 0 1 2.31 1.19v-3.63h.81Zm-.8 5.51a2.263 2.263 0 0 0-.431-1.219 2.258 2.258 0 0 0-2.321-.864 2.249 2.249 0 0 0-1.564 3.078 2.255 2.255 0 0 0 2.066 1.365 2.227 2.227 0 0 0 1.641-.688 2.215 2.215 0 0 0 .609-1.672ZM216.4 129.18v8.53h-.78v-1.19a2.65 2.65 0 0 1-2.34 1.25 3.081 3.081 0 0 1 0-6.15 2.635 2.635 0 0 1 2.3 1.19v-3.63h.82Zm-.81 5.51a2.251 2.251 0 0 0-2.756-2.082 2.25 2.25 0 0 0 .516 4.442 2.214 2.214 0 0 0 1.638-.688 2.201 2.201 0 0 0 .602-1.672ZM221.72 131.62v.79h-.19a1.994 1.994 0 0 0-1.919 1.394 1.99 1.99 0 0 0-.081.836v3.08h-.82v-6.05h.79v1.19a2.266 2.266 0 0 1 2.22-1.24ZM228.4 134.94h-5.06a2.237 2.237 0 0 0 2.38 2.11 2.402 2.402 0 0 0 1.86-.8l.46.53a3.205 3.205 0 0 1-3.447.78 3.203 3.203 0 0 1-2.063-2.87 2.95 2.95 0 1 1 5.89 0c0 .07-.02.16-.02.25Zm-5.06-.61h4.29a2.146 2.146 0 0 0-2.145-2.003 2.151 2.151 0 0 0-2.145 2.003ZM229.24 137l.37-.64a3.634 3.634 0 0 0 2.15.68c1.15 0 1.62-.39 1.62-1 0-1.58-3.92-.34-3.92-2.73 0-1 .85-1.72 2.39-1.72a4.004 4.004 0 0 1 2.14.56l-.35.66a3.118 3.118 0 0 0-1.79-.52c-1.09 0-1.57.42-1.57 1 0 1.63 3.92.4 3.92 2.73 0 1-.92 1.72-2.5 1.72a4 4 0 0 1-2.46-.74ZM234.86 137l.37-.64c.627.447 1.38.685 2.15.68 1.15 0 1.63-.39 1.63-1 0-1.58-3.93-.34-3.93-2.73 0-1 .85-1.72 2.4-1.72a4.072 4.072 0 0 1 2.14.56l-.36.66a3.078 3.078 0 0 0-1.78-.52c-1.1 0-1.58.42-1.58 1 0 1.63 3.92.4 3.92 2.73 0 1-.92 1.72-2.49 1.72a4.052 4.052 0 0 1-2.47-.74Z" fill="#263238"/><path d="M175.54 159.26h-5.06a2.25 2.25 0 0 0 .754 1.544 2.232 2.232 0 0 0 1.626.556 2.366 2.366 0 0 0 1.85-.79l.46.53a3.205 3.205 0 0 1-3.447.78 3.203 3.203 0 0 1-2.063-2.87 2.923 2.923 0 0 1 1.819-2.868 2.93 2.93 0 0 1 1.181-.212 2.888 2.888 0 0 1 2.764 1.906c.136.376.192.775.166 1.174a.51.51 0 0 0-.05.25Zm-5.06-.61h4.29a2.15 2.15 0 0 0-4.29 0ZM180.9 162l-1.9-2.5-1.95 2.5h-.92l2.39-3.1-2.28-3h.92l1.82 2.37 1.82-2.27h.89l-2.27 3 2.41 3.1-.93-.1ZM187.64 158.28V162h-.78v-.94a2.291 2.291 0 0 1-2.09 1c-1.37 0-2.2-.71-2.2-1.76s.59-1.71 2.33-1.71h1.92v-.37c0-1-.59-1.6-1.71-1.6a3.098 3.098 0 0 0-2 .71l-.36-.61a3.818 3.818 0 0 1 2.46-.82 2.168 2.168 0 0 1 1.795.598 2.165 2.165 0 0 1 .635 1.782Zm-.82 1.93v-1h-1.9c-1.17 0-1.55.46-1.55 1.09 0 .63.56 1.14 1.53 1.14a1.934 1.934 0 0 0 1.92-1.23ZM199.84 158.52V162H199v-3.4c0-1.27-.65-1.93-1.74-1.93a2.006 2.006 0 0 0-1.486.651 2.004 2.004 0 0 0-.514 1.539V162h-.81v-3.4c0-1.27-.65-1.93-1.75-1.93a2.006 2.006 0 0 0-1.486.651 2.004 2.004 0 0 0-.514 1.539V162h-.81v-6h.78v1.1c.233-.373.562-.677.952-.88a2.458 2.458 0 0 1 1.268-.27 2.183 2.183 0 0 1 2.15 1.28c.245-.41.597-.745 1.018-.97a2.632 2.632 0 0 1 1.372-.31 2.295 2.295 0 0 1 1.808.719 2.297 2.297 0 0 1 .602 1.851ZM208.19 159a2.933 2.933 0 0 1-1.821 2.865 2.937 2.937 0 0 1-1.179.215 2.637 2.637 0 0 1-2.3-1.2v3.37h-.81V156h.78v1.2a2.625 2.625 0 0 1 2.33-1.25 2.947 2.947 0 0 1 2.158.878 2.937 2.937 0 0 1 .842 2.172Zm-.82 0a2.258 2.258 0 0 0-1.458-2.024 2.26 2.26 0 1 0-.792 4.374 2.22 2.22 0 0 0 .888-.175 2.217 2.217 0 0 0 1.226-1.28c.106-.286.152-.591.136-.895ZM209.85 153.5h.82v8.5h-.82v-8.5ZM218.22 159.26h-5.07a2.25 2.25 0 0 0 2.39 2.1 2.382 2.382 0 0 0 1.85-.79l.46.53a3.205 3.205 0 0 1-3.447.78 3.203 3.203 0 0 1-2.063-2.87 2.95 2.95 0 1 1 5.89 0c0 .07-.01.16-.01.25Zm-5.07-.61h4.3a2.15 2.15 0 0 0-4.3 0ZM230.05 159c0 2-.72 3.11-1.91 3.11a1.237 1.237 0 0 1-.923-.341 1.24 1.24 0 0 1-.377-.909 2.555 2.555 0 0 1-2.3 1.25 3.001 3.001 0 0 1 0-5.94 2.585 2.585 0 0 1 2.28 1.21v-1.18h.75v4.36c0 .64.32.87.71.87.71 0 1.17-.88 1.17-2.44a4.389 4.389 0 0 0-1.359-3.297 4.37 4.37 0 0 0-3.361-1.193 4.64 4.64 0 0 0-3.412 1.276 4.634 4.634 0 0 0-1.06 5.17 4.634 4.634 0 0 0 4.472 2.804 4.995 4.995 0 0 0 2.21-.51l.19.56a5.53 5.53 0 0 1-2.4.53 5.209 5.209 0 0 1-4.813-7.204 5.195 5.195 0 0 1 2.819-2.819 5.209 5.209 0 0 1 1.994-.397 5.005 5.005 0 0 1 3.778 1.377 4.98 4.98 0 0 1 1.16 1.695c.266.639.396 1.326.382 2.018Zm-3.22.13a2.19 2.19 0 1 0-2.19 2.31 2.146 2.146 0 0 0 1.618-.674 2.13 2.13 0 0 0 .572-1.656v.02ZM237.38 156v5.32c0 2.08-1 3-3 3a4.22 4.22 0 0 1-2.82-.93l.41-.62a3.608 3.608 0 0 0 2.39.83c1.53 0 2.23-.71 2.23-2.2v-.77a2.727 2.727 0 0 1-2.36 1.17 2.948 2.948 0 0 1-2.189-.796 2.935 2.935 0 0 1-.682-3.304 2.96 2.96 0 0 1 .682-.974 2.948 2.948 0 0 1 2.189-.796 2.728 2.728 0 0 1 2.39 1.21V156h.76Zm-.8 2.88a2.3 2.3 0 1 0-2.3 2.22 2.154 2.154 0 0 0 1.649-.608 2.155 2.155 0 0 0 .651-1.632v.02ZM249.65 158.52V162h-.82v-3.4c0-1.27-.64-1.93-1.74-1.93a2.01 2.01 0 0 0-1.486.651 2.02 2.02 0 0 0-.42.715 1.986 1.986 0 0 0-.094.824V162h-.82v-3.4c0-1.27-.64-1.93-1.75-1.93a2.01 2.01 0 0 0-1.486.651 2.02 2.02 0 0 0-.42.715 1.986 1.986 0 0 0-.094.824V162h-.82v-6h.78v1.1a2.455 2.455 0 0 1 2.22-1.15 2.19 2.19 0 0 1 2.16 1.28 2.634 2.634 0 0 1 2.39-1.28 2.284 2.284 0 0 1 2.306 1.58c.103.319.135.657.094.99ZM256.43 158.28V162h-.78v-.94a2.277 2.277 0 0 1-2.08 1c-1.37 0-2.21-.71-2.21-1.76s.59-1.71 2.33-1.71h1.92v-.37c0-1-.58-1.6-1.71-1.6-.73-.01-1.44.242-2 .71l-.37-.61a3.817 3.817 0 0 1 2.46-.82 2.165 2.165 0 0 1 1.801.594 2.163 2.163 0 0 1 .639 1.786Zm-.82 1.93v-1h-1.9c-1.17 0-1.55.46-1.55 1.09 0 .63.57 1.14 1.53 1.14a1.934 1.934 0 0 0 1.92-1.23ZM258.46 154.07a.59.59 0 0 1 .6-.57.592.592 0 0 1 .224.036.592.592 0 0 1 .324.303c.032.07.049.145.052.221a.589.589 0 0 1-.6.6.602.602 0 0 1-.6-.59Zm.19 1.91h.81V162h-.81v-6.02ZM261.74 153.5h.82v8.5h-.82v-8.5ZM264.3 161.46a.61.61 0 0 1 .61-.62.634.634 0 0 1 .445.178.62.62 0 0 1 .185.442.626.626 0 0 1-.185.445.626.626 0 0 1-.445.185.622.622 0 0 1-.61-.63ZM266.49 159a3.008 3.008 0 0 1 .891-2.217 3.001 3.001 0 0 1 2.229-.863 2.677 2.677 0 0 1 2.37 1.2l-.61.42a2.073 2.073 0 0 0-1.76-.9 2.363 2.363 0 0 0-2.207 2.355 2.362 2.362 0 0 0 2.207 2.355 2 2 0 0 0 1.76-.88l.61.41a2.677 2.677 0 0 1-2.37 1.2 3.001 3.001 0 0 1-3.12-3.08ZM272.86 159a3.082 3.082 0 0 1 3.681-3.021 3.082 3.082 0 0 1 2.245 4.2 3.082 3.082 0 0 1-2.846 1.901 3.003 3.003 0 0 1-2.868-1.888 3.003 3.003 0 0 1-.212-1.192Zm5.33 0a2.255 2.255 0 0 0-1.456-2.006 2.248 2.248 0 0 0-2.861 2.989 2.242 2.242 0 0 0 2.067 1.367 2.218 2.218 0 0 0 1.641-.681 2.214 2.214 0 0 0 .609-1.669ZM290.67 158.52V162h-.82v-3.4c0-1.27-.64-1.93-1.74-1.93a2.01 2.01 0 0 0-1.486.651 2.02 2.02 0 0 0-.42.715 1.986 1.986 0 0 0-.094.824V162h-.82v-3.4c0-1.27-.64-1.93-1.75-1.93a2.01 2.01 0 0 0-1.486.651 2.02 2.02 0 0 0-.42.715 1.986 1.986 0 0 0-.094.824V162h-.82v-6h.78v1.1a2.455 2.455 0 0 1 2.22-1.15 2.168 2.168 0 0 1 2.15 1.28 2.659 2.659 0 0 1 2.4-1.28 2.284 2.284 0 0 1 2.306 1.58c.103.319.136.657.094.99Z" fill="#E0E0E0"/><path d="M373.82 172.39a1.77 1.77 0 0 0 1.11-.47c.73-.57.42-1.92.48-3.5 0-3.22 0-8-.05-14.06v-6.12a5.333 5.333 0 0 0-.08-1.28 1.545 1.545 0 0 0-.312-.534 1.55 1.55 0 0 0-.498-.366 2.929 2.929 0 0 0-1.31-.14H331.6l-170.68.07a1.404 1.404 0 0 0-1.13.57c-.25.399-.346.875-.27 1.34v23.04a1.357 1.357 0 0 0 .74 1c.188.099.397.15.61.15h65.5l76.73.06 51.73.08 14.06.05h4.91-4.91l-14.06.05-51.73.08-76.73.06h-65.5a1.9 1.9 0 0 1-1.86-1.56c-.07-.59 0-1 0-1.56V148a8.01 8.01 0 0 1 0-.82c.043-.297.16-.579.34-.82a1.91 1.91 0 0 1 1.55-.79l170.68.08h41.56c.477-.052.959.006 1.41.17.214.096.407.234.566.406.16.171.284.373.364.594.088.444.118.898.09 1.35v6.12c0 6.1 0 10.84-.05 14.06v2.13A1.72 1.72 0 0 1 375 172a1.524 1.524 0 0 1-1.18.39Z" fill="#E0E0E0"/><path d="M166.87 192.84c0 1.71-1.24 2.75-3.29 2.75h-2.16v2.54h-.85v-8h3c2.06-.05 3.3.98 3.3 2.71Zm-.85 0c0-1.29-.85-2-2.46-2h-2.14v4h2.14c1.61 0 2.44-.74 2.44-2h.02ZM173.05 194.38v3.75h-.79v-.94a2.267 2.267 0 0 1-2.08 1c-1.37 0-2.21-.72-2.21-1.76s.6-1.72 2.34-1.72h1.92v-.37c0-1-.59-1.59-1.72-1.59a3.067 3.067 0 0 0-2 .71l-.37-.61c.7-.55 1.57-.84 2.46-.82a2.155 2.155 0 0 1 1.8.576 2.141 2.141 0 0 1 .65 1.774Zm-.82 1.93v-1h-1.9c-1.17 0-1.55.46-1.55 1.08 0 .62.56 1.14 1.53 1.14a1.921 1.921 0 0 0 1.92-1.22ZM174.42 197.44l.37-.64c.63.441 1.381.675 2.15.67 1.15 0 1.62-.39 1.62-1 0-1.57-3.92-.33-3.92-2.72 0-1 .85-1.73 2.39-1.73a3.999 3.999 0 0 1 2.14.57l-.35.65a3.094 3.094 0 0 0-1.79-.52c-1.09 0-1.57.43-1.57 1 0 1.64 3.92.41 3.92 2.73 0 1-.92 1.73-2.5 1.73a4.006 4.006 0 0 1-2.46-.74ZM180.05 197.44l.36-.64c.634.44 1.388.674 2.16.67 1.15 0 1.62-.39 1.62-1 0-1.57-3.93-.33-3.93-2.72 0-1 .86-1.73 2.4-1.73a4.077 4.077 0 0 1 2.14.57l-.36.65a3.078 3.078 0 0 0-1.78-.52c-1.1 0-1.58.43-1.58 1 0 1.64 3.92.41 3.92 2.73 0 1-.92 1.73-2.49 1.73a4 4 0 0 1-2.46-.74ZM195.28 192.08l-2.29 6h-.77l-1.91-5-1.91 5h-.77l-2.28-6h.78l1.9 5.14 1.94-5.14h.7l1.94 5.14 1.92-5.14h.75ZM195.72 195.1a3.075 3.075 0 0 1 1.908-2.838 3.077 3.077 0 0 1 4.016 4.029 3.08 3.08 0 0 1-2.844 1.899 2.993 2.993 0 0 1-2.206-.881 2.991 2.991 0 0 1-.874-2.209Zm5.33 0a2.256 2.256 0 0 0-1.463-1.999 2.256 2.256 0 0 0-2.999 1.709 2.255 2.255 0 0 0 .974 2.277c.367.243.798.372 1.238.373a2.208 2.208 0 0 0 2.25-2.36ZM206.59 192v.8h-.2a1.989 1.989 0 0 0-1.506.668 2.005 2.005 0 0 0-.494 1.572v3.08h-.82v-6h.78v1.18a2.295 2.295 0 0 1 2.24-1.3ZM213.52 189.59v8.54h-.78v-1.2a2.613 2.613 0 0 1-2.33 1.26 3.083 3.083 0 0 1-3.08-3.08 3.083 3.083 0 0 1 3.08-3.08 2.658 2.658 0 0 1 2.3 1.2v-3.64h.81Zm-.8 5.51a2.251 2.251 0 0 0-2.756-2.082 2.25 2.25 0 0 0 .516 4.442 2.214 2.214 0 0 0 1.638-.688 2.201 2.201 0 0 0 .602-1.672Z" fill="#263238"/><path d="M176.14 222.47v.74h-5.7v-8.06H176v.74h-4.7v2.87h4.16v.72h-4.16v3l4.84-.01ZM183.53 219.7v3.51h-.81v-3.43a1.69 1.69 0 0 0-1.82-1.93 1.986 1.986 0 0 0-1.562.602 1.984 1.984 0 0 0-.452.728 1.98 1.98 0 0 0-.106.85v3.18H178v-6.05h.78v1.11a2.54 2.54 0 0 1 2.3-1.16 2.312 2.312 0 0 1 2.45 2.59ZM188.94 222.84a1.938 1.938 0 0 1-1.28.43 1.593 1.593 0 0 1-1.307-.455 1.598 1.598 0 0 1-.463-1.305v-3.66h-1.08v-.69h1.08v-1.33h.82v1.33h1.84v.69h-1.84v3.61a1.004 1.004 0 0 0 1 1.1 1.33 1.33 0 0 0 .9-.31l.33.59ZM195.47 220.43h-5.06a2.237 2.237 0 0 0 2.38 2.11 2.366 2.366 0 0 0 1.85-.79l.46.53a3.195 3.195 0 0 1-1.609.909 3.195 3.195 0 0 1-3.306-1.26 3.2 3.2 0 0 1-.595-1.749 2.914 2.914 0 0 1 1.82-2.862c.375-.15.776-.221 1.18-.208.399-.008.795.067 1.163.221a2.87 2.87 0 0 1 1.601 1.677c.136.375.192.774.166 1.172a.51.51 0 0 0-.05.25Zm-5.06-.6h4.29a2.146 2.146 0 0 0-2.145-2.003 2.151 2.151 0 0 0-2.145 2.003ZM200.2 217.11v.79h-.2a1.994 1.994 0 0 0-1.919 1.394 1.99 1.99 0 0 0-.081.836v3.09h-.81v-6.05h.78v1.18a2.284 2.284 0 0 1 2.23-1.24ZM210.9 220.18a2.935 2.935 0 0 1-.827 2.199 2.95 2.95 0 0 1-2.173.891 2.643 2.643 0 0 1-2.3-1.2v3.37h-.82v-8.28h.78v1.19a2.663 2.663 0 0 1 2.34-1.24 2.922 2.922 0 0 1 2.169.881 2.92 2.92 0 0 1 .831 2.189Zm-.81 0a2.254 2.254 0 0 0-1.356-2.224 2.258 2.258 0 0 0-3.027 1.314 2.254 2.254 0 0 0-.127.91 2.254 2.254 0 0 0 .605 1.694 2.258 2.258 0 0 0 3.3 0 2.256 2.256 0 0 0 .605-1.694ZM217.1 219.46v3.75h-.78v-1a2.265 2.265 0 0 1-2.08 1c-1.37 0-2.21-.72-2.21-1.76s.6-1.72 2.33-1.72h1.92v-.37c0-1-.58-1.6-1.71-1.6a3.06 3.06 0 0 0-2 .72l-.37-.61a3.818 3.818 0 0 1 2.46-.82 2.143 2.143 0 0 1 1.819.598 2.155 2.155 0 0 1 .621 1.812Zm-.82 1.93v-1h-1.89c-1.18 0-1.56.46-1.56 1.08 0 .62.57 1.14 1.53 1.14a1.94 1.94 0 0 0 1.92-1.22ZM218.48 222.52l.37-.65a3.634 3.634 0 0 0 2.15.68c1.15 0 1.62-.39 1.62-1 0-1.57-3.92-.33-3.92-2.72 0-1 .85-1.73 2.39-1.73a4.173 4.173 0 0 1 2.14.56l-.36.66a3.078 3.078 0 0 0-1.78-.52c-1.09 0-1.58.43-1.58 1 0 1.64 3.93.41 3.93 2.73 0 1.05-.92 1.73-2.5 1.73a4.072 4.072 0 0 1-2.46-.74ZM224.1 222.52l.37-.65c.627.449 1.38.687 2.15.68 1.15 0 1.62-.39 1.62-1 0-1.57-3.92-.33-3.92-2.72 0-1 .85-1.73 2.39-1.73a4.112 4.112 0 0 1 2.14.56l-.35.66a3.118 3.118 0 0 0-1.79-.52c-1.09 0-1.57.43-1.57 1 0 1.64 3.92.41 3.92 2.73 0 1.05-.92 1.73-2.5 1.73a4.093 4.093 0 0 1-2.46-.74ZM239.33 217.16l-2.33 6.05h-.77l-1.91-5-1.91 5h-.77l-2.28-6.05h.79l1.89 5.14 1.95-5.14h.7l1.93 5.14 1.92-5.14h.79ZM239.78 220.18a3.075 3.075 0 0 1 1.908-2.838 3.077 3.077 0 0 1 4.193 2.251 3.074 3.074 0 0 1-1.311 3.159 3.078 3.078 0 0 1-1.71.518 2.993 2.993 0 0 1-2.206-.881 2.981 2.981 0 0 1-.665-1.014 3.015 3.015 0 0 1-.209-1.195Zm5.32 0a2.26 2.26 0 0 0-.432-1.22 2.256 2.256 0 0 0-3.447-.219 2.253 2.253 0 0 0-.434 2.44 2.25 2.25 0 0 0 2.073 1.359 2.214 2.214 0 0 0 1.638-.688 2.201 2.201 0 0 0 .602-1.672ZM250.65 217.11v.79h-.2a1.994 1.994 0 0 0-1.919 1.394 1.99 1.99 0 0 0-.081.836v3.09h-.81v-6.05h.78v1.18a2.284 2.284 0 0 1 2.23-1.24ZM257.58 214.67v8.54h-.78V222a2.626 2.626 0 0 1-2.34 1.26 3.083 3.083 0 0 1-3.08-3.08 3.079 3.079 0 0 1 3.08-3.08 2.623 2.623 0 0 1 2.3 1.2v-3.64l.82.01Zm-.8 5.51a2.256 2.256 0 0 0-1.463-1.999 2.256 2.256 0 0 0-2.999 1.709 2.25 2.25 0 0 0 2.212 2.65 2.219 2.219 0 0 0 2.25-2.36Z" fill="#E0E0E0"/><path d="M325 215.89v3.16h4.16v.74H325v3.42h-.86v-8.06h5.53v.74H325ZM330.45 220.18a3.081 3.081 0 0 1 6.1-.593 3.08 3.08 0 0 1-3.01 3.683 3.005 3.005 0 0 1-2.88-1.893 2.987 2.987 0 0 1-.21-1.197Zm5.33 0a2.26 2.26 0 0 0-.432-1.22 2.256 2.256 0 0 0-3.447-.219 2.246 2.246 0 0 0-.434 2.44 2.25 2.25 0 0 0 2.073 1.359 2.214 2.214 0 0 0 1.638-.688 2.209 2.209 0 0 0 .602-1.672ZM341.32 217.11v.79h-.19a1.99 1.99 0 0 0-1.502.665 1.995 1.995 0 0 0-.498 1.565v3.09h-.82v-6.05h.79v1.18a2.284 2.284 0 0 1 2.22-1.24ZM348.34 217.16v5.31c0 2.08-1 3-3 3a4.286 4.286 0 0 1-2.82-.93l.42-.63a3.579 3.579 0 0 0 2.38.83c1.53 0 2.23-.7 2.23-2.19v-.78a2.703 2.703 0 0 1-2.36 1.18 2.948 2.948 0 0 1-2.189-.796 2.938 2.938 0 0 1-.682-3.304 2.947 2.947 0 0 1 2.871-1.77 2.723 2.723 0 0 1 2.4 1.21v-1.16l.75.03Zm-.79 2.87a2.303 2.303 0 0 0-1.361-2.18 2.302 2.302 0 0 0-2.531.442 2.301 2.301 0 0 0 1.582 3.958 2.172 2.172 0 0 0 2.31-2.25v.03ZM350 220.18a3.075 3.075 0 0 1 1.908-2.838 3.077 3.077 0 0 1 4.193 2.251 3.083 3.083 0 0 1-1.311 3.159 3.078 3.078 0 0 1-1.71.518 2.993 2.993 0 0 1-2.206-.881 2.981 2.981 0 0 1-.665-1.014 3.015 3.015 0 0 1-.209-1.195Zm5.32 0a2.26 2.26 0 0 0-.432-1.22 2.256 2.256 0 0 0-3.447-.219 2.253 2.253 0 0 0-.434 2.44 2.25 2.25 0 0 0 2.073 1.359 2.206 2.206 0 0 0 2.133-1.456c.105-.289.148-.597.127-.904h-.02ZM361 222.84a1.92 1.92 0 0 1-1.28.43 1.599 1.599 0 0 1-1.303-.46 1.6 1.6 0 0 1-.467-1.3v-3.66h-1.08v-.69H358v-1.33h.82v1.33h1.84v.69h-1.84v3.61a.998.998 0 0 0 1 1.1c.325.01.641-.101.89-.31l.29.59ZM366 217.21c0-.82-.68-1.4-1.86-1.4a2.661 2.661 0 0 0-2.19.93l-.61-.46a3.498 3.498 0 0 1 2.86-1.19c1.61 0 2.65.77 2.65 2 0 2-2.11 2.06-2.11 3.7h-.85c-.03-1.9 2.11-2.07 2.11-3.58Zm-2.28 5.46a.567.567 0 0 1 .173-.424.591.591 0 0 1 .427-.166.593.593 0 0 1 .563.359.593.593 0 0 1 .047.231.612.612 0 0 1-.61.6.59.59 0 0 1-.444-.165.594.594 0 0 1-.186-.435h.03Z" fill="#FF725E"/><path d="M373.82 233.57a1.762 1.762 0 0 0 1.11-.48c.73-.56.42-1.92.48-3.49 0-3.23 0-8-.05-14.07v-6.12a5.251 5.251 0 0 0-.08-1.27 1.575 1.575 0 0 0-.81-.91 3.08 3.08 0 0 0-1.31-.14H331.6l-170.68.08a1.362 1.362 0 0 0-1.13.57 1.924 1.924 0 0 0-.27 1.34v23.1a1.381 1.381 0 0 0 1.35 1.15H303.1l51.73.08h18.97-18.97l-51.73.08-76.73.06h-65.5a1.9 1.9 0 0 1-1.86-1.55c-.07-.6 0-1 0-1.57v-21.29a8.01 8.01 0 0 1 0-.82 1.889 1.889 0 0 1 1.021-1.407c.269-.136.567-.205.869-.203l170.68.07h41.56c.477-.047.958.011 1.41.17a1.776 1.776 0 0 1 .93 1.06c.088.441.119.891.09 1.34v6.12c0 6.1 0 10.84-.05 14.07v2.12a1.727 1.727 0 0 1-.54 1.41 1.553 1.553 0 0 1-1.16.5Z" fill="#E0E0E0"/><path d="m245.69 330 .34-.66a3.907 3.907 0 0 0 2.65 1c1.51 0 2.17-.63 2.17-1.42 0-2.21-5-.86-5-3.84 0-1.18.92-2.2 3-2.2a4.5 4.5 0 0 1 2.49.71l-.28.68a4.18 4.18 0 0 0-2.21-.67c-1.48 0-2.13.66-2.13 1.46 0 2.21 5 .88 5 3.81 0 1.18-.95 2.2-3 2.2a4.388 4.388 0 0 1-3.03-1.07ZM253.18 323a.584.584 0 0 1 .18-.414.583.583 0 0 1 .42-.166.582.582 0 0 1 .521.372.574.574 0 0 1-.138.625.582.582 0 0 1-.887-.097.586.586 0 0 1-.096-.32Zm.18 1.91h.82v6h-.82v-6ZM269.46 327.45V331h-.82v-3.43a1.683 1.683 0 0 0-1.062-1.827 1.687 1.687 0 0 0-.748-.103 2.002 2.002 0 0 0-2.014 1.33 1.98 1.98 0 0 0-.106.85V331h-.82v-6h.78v1c.248-.38.593-.688.998-.892a2.58 2.58 0 0 1 1.312-.268 2.303 2.303 0 0 1 1.865.711 2.3 2.3 0 0 1 .523.88 2.3 2.3 0 0 1 .092 1.019ZM262.05 324.91v5.31c0 2.08-1 3-3 3a4.252 4.252 0 0 1-2.82-.93l.41-.63a3.603 3.603 0 0 0 2.38.83c1.53 0 2.23-.7 2.23-2.19v-.77a2.703 2.703 0 0 1-2.35 1.17 2.948 2.948 0 0 1-2.189-.796 2.938 2.938 0 0 1-.682-3.304 2.96 2.96 0 0 1 .682-.974 2.948 2.948 0 0 1 2.189-.796 2.716 2.716 0 0 1 2.39 1.21v-1.16l.76.03Zm-.79 2.87a2.295 2.295 0 0 0-1.372-2.185 2.302 2.302 0 0 0-3.181 1.651 2.296 2.296 0 0 0 .996 2.38c.385.251.837.382 1.297.374a2.17 2.17 0 0 0 2.26-2.22ZM280.62 324.91v6h-.78v-1.11a2.422 2.422 0 0 1-2.18 1.17 2.348 2.348 0 0 1-2.436-1.573c-.114-.33-.153-.681-.114-1.027v-3.51h.82v3.43c0 1.28.66 1.94 1.81 1.94a1.999 1.999 0 0 0 2.06-2.2v-3.17l.82.05ZM289 327.93a2.935 2.935 0 0 1-1.821 2.871 2.94 2.94 0 0 1-1.179.219 2.658 2.658 0 0 1-2.3-1.2v3.37h-.82v-8.28h.79v1.19a2.624 2.624 0 0 1 2.33-1.24 2.922 2.922 0 0 1 2.169.881 2.933 2.933 0 0 1 .831 2.189Zm-.82 0a2.263 2.263 0 0 0-1.465-2.016 2.255 2.255 0 0 0-2.429.557 2.26 2.26 0 0 0 1.644 3.819 2.232 2.232 0 0 0 2.29-2.36h-.04Z" fill="#263238"/><path d="M373.82 340.88a1.77 1.77 0 0 0 1.11-.47c.73-.57.42-1.93.48-3.5 0-3.23 0-8-.05-14.07v-6.12a5.251 5.251 0 0 0-.08-1.27 1.575 1.575 0 0 0-.81-.91 3.08 3.08 0 0 0-1.31-.14H331.6l-170.68.08a1.404 1.404 0 0 0-1.13.57 1.924 1.924 0 0 0-.27 1.34v23.09a1.372 1.372 0 0 0 .74 1c.188.099.397.15.61.15h65.5l76.73.05 51.73.09h18.97-4.91l-14.06.05-51.73.08-76.73.06h-65.5a2.009 2.009 0 0 1-.84-.21 1.86 1.86 0 0 1-1-1.35c-.07-.6 0-1 0-1.57v-21.38a8.01 8.01 0 0 1 0-.82 1.889 1.889 0 0 1 1.021-1.407c.269-.136.567-.205.869-.203l170.68.07h41.56c.477-.047.958.011 1.41.17a1.776 1.776 0 0 1 .93 1.06c.088.441.119.891.09 1.34v6.12c0 6.1 0 10.84-.05 14.07v2.12a1.705 1.705 0 0 1-.54 1.41 1.562 1.562 0 0 1-1.18.5Z" fill="#263238"/><path d="M364.39 264.72H170.32c-6.114 0-11.07 4.956-11.07 11.07v4.46c0 6.114 4.956 11.07 11.07 11.07h194.07c6.114 0 11.07-4.956 11.07-11.07v-4.46c0-6.114-4.956-11.07-11.07-11.07Z" fill="#FF725E"/><path d="M250.83 273.29h.85v7.32h4.51v.74h-5.36v-8.06ZM256.73 278.32a3.078 3.078 0 0 1 5.254-2.181 3.085 3.085 0 0 1-.455 4.737 3.08 3.08 0 0 1-1.709.524 2.991 2.991 0 0 1-2.877-1.886 2.993 2.993 0 0 1-.213-1.194Zm5.33 0a2.251 2.251 0 0 0-2.756-2.082 2.25 2.25 0 0 0 .516 4.442 2.214 2.214 0 0 0 2.115-1.461c.103-.288.146-.594.125-.899ZM270.16 275.29v5.32c0 2.08-1 3-3 3a4.22 4.22 0 0 1-2.82-.93l.42-.62a3.558 3.558 0 0 0 2.38.83c1.53 0 2.23-.7 2.23-2.2v-.77a2.731 2.731 0 0 1-2.36 1.17 2.933 2.933 0 0 1-2.93-2.93 2.933 2.933 0 0 1 2.93-2.93 2.708 2.708 0 0 1 2.39 1.21v-1.17l.76.02Zm-.8 2.88a2.3 2.3 0 1 0-2.3 2.22 2.162 2.162 0 0 0 2.3-2.22ZM275.27 273.38a.597.597 0 0 1 .6-.6.597.597 0 0 1 .6.6.597.597 0 0 1-.6.6.597.597 0 0 1-.6-.6Zm.18 1.91h.82v6.06h-.82v-6.06ZM284.12 277.84v3.51h-.82v-3.43a1.708 1.708 0 0 0-.442-1.409 1.71 1.71 0 0 0-1.378-.531 2.006 2.006 0 0 0-1.566.605 2.004 2.004 0 0 0-.554 1.585v3.18h-.81v-6.06h.78v1.12a2.528 2.528 0 0 1 2.3-1.16 2.314 2.314 0 0 1 1.859.705 2.314 2.314 0 0 1 .631 1.885Z" fill="#fff"/><path d="m46.6 440.83-1.29 7.35 1.09.24c4.88 1 24.87 4.91 28.31 4.42 3.84-.55-10.78-6.3-10.78-6.3l.46-3.11-17.79-2.6Z" fill="#FF725E"/><path opacity=".5" d="M51.79 449a6.23 6.23 0 0 0-1.69-4.15 6.002 6.002 0 0 0-4-1.94l-.78 5 6.47 1.09Z" fill="#fff"/><path opacity=".5" d="M71 449.61s5.07 2.36 4.28 3.13-21.15-2.38-30-4.56l.09-.39 23.7 3.88s.93-2.17 1.93-2.06Z" fill="#fff"/><path d="M45.12 447.73c.096.041.197.068.3.08l.87.19 3.22.64c2.72.53 6.49 1.2 10.66 1.85 4.17.65 8 1.15 10.73 1.48l3.26.37.89.09h.31l-.31-.06-.88-.12-3.25-.44c-2.75-.37-6.54-.9-10.71-1.55-4.17-.65-8-1.3-10.67-1.78l-3.23-.57-.88-.15-.31-.03Z" fill="#263238"/><path d="M69.05 451.94c.23-.512.515-.999.85-1.45a7.444 7.444 0 0 1 1.29-1.07 2.39 2.39 0 0 0-1.46.93c-.41.431-.651.996-.68 1.59ZM64.21 448.46s.34-.23.67-.6.54-.7.5-.74c-.04-.04-.35.23-.67.6-.32.37-.55.7-.5.74ZM62.88 447.47s.35-.09.7-.32.6-.45.57-.5c-.03-.05-.34.09-.69.32-.35.23-.61.45-.58.5Z" fill="#263238"/><path d="M62.23 445.65a4.21 4.21 0 1 0 1 .05 2.078 2.078 0 0 0-1-.05ZM62.1 444.41c.277.255.626.419 1 .47.358.113.742.113 1.1 0a6.607 6.607 0 0 0-1-.24 6.556 6.556 0 0 0-1.1-.23Z" fill="#263238"/><path d="M65.05 447c.372.116.76.173 1.15.17.422.01.843-.017 1.26-.08.252-.034.5-.094.74-.18a.64.64 0 0 0 .34-.31.461.461 0 0 0-.1-.49 2.13 2.13 0 0 0-2.69.21c-.213.2-.383.442-.5.71-.07.19-.09.3-.07.31a3.16 3.16 0 0 1 .67-.9 2.118 2.118 0 0 1 1.08-.48 1.747 1.747 0 0 1 1.35.3c.16.16 0 .37-.17.45-.22.086-.447.146-.68.18a7.356 7.356 0 0 1-1.23.12c-.7-.01-1.14-.01-1.15-.01Z" fill="#263238"/><path d="M65.34 447.1s.23-.25.26-.77a1.908 1.908 0 0 0-.19-.89 1.16 1.16 0 0 0-.86-.73.458.458 0 0 0-.313.146.448.448 0 0 0-.117.324c-.002.189.035.376.11.55.111.273.256.532.43.77.31.41.57.59.59.57.02-.02-.2-.24-.46-.65a4.292 4.292 0 0 1-.37-.77c-.12-.26-.16-.71.13-.72.29-.01.54.35.68.6a2 2 0 0 1 .21.8 3.946 3.946 0 0 1-.1.77ZM46.24 442.91s.51 0 1.31.25c1.03.286 1.96.85 2.69 1.63a5.902 5.902 0 0 1 1.4 2.82c.15.8.1 1.32.14 1.32.039-.116.06-.238.06-.36a5.318 5.318 0 0 0-.05-1 5.572 5.572 0 0 0-1.39-2.94 5.657 5.657 0 0 0-2.82-1.63 4.742 4.742 0 0 0-1-.12 1 1 0 0 0-.34.03ZM54.3 447.65c.824.323 1.683.544 2.56.66.868.18 1.755.244 2.64.19 0-.06-1.17-.17-2.6-.41-1.43-.24-2.58-.5-2.6-.44Z" fill="#263238"/><path d="M50.81 447.1c-.05 0 .06.26.13.55.07.29.11.53.17.54.06.01.14-.27 0-.6-.14-.33-.26-.53-.3-.49ZM49.75 445.26s0 .24.19.45c.19.21.32.36.37.33.05-.03 0-.24-.19-.46-.19-.22-.32-.36-.37-.32ZM48 444.22c0 .06.24.09.49.23s.41.3.46.27c.05-.03 0-.31-.36-.47-.36-.16-.59-.09-.59-.03ZM46.69 443.66s.06.16.2.24c.14.08.28.1.31.05.03-.05-.06-.16-.2-.24-.14-.08-.28-.11-.31-.05Z" fill="#263238"/><path d="m140.4 447.11.67 7.44 1.12-.05c5-.28 25.28-1.76 28.48-3.13 3.56-1.53-12-3.26-12-3.26l-.37-3.12-17.9 2.12Z" fill="#FF725E"/><path opacity=".5" d="M147.55 453.69a6.26 6.26 0 0 0-2.71-3.57 6.09 6.09 0 0 0-4.34-.84l.56 5 6.49-.59Z" fill="#fff"/><path opacity=".5" d="M166.28 449.22s5.51.94 4.94 1.9c-.57.96-21 3.22-30.15 3.43v-.4L165 451.7s.24-2.32 1.28-2.48Z" fill="#fff"/><path d="M140.77 454.17h.31l.89-.05 3.28-.22c2.76-.21 6.57-.54 10.78-1 4.21-.46 8-1 10.74-1.37L170 451l.88-.15c.101-.014.201-.034.3-.06h-.31l-.87.21-3.26.43c-2.74.36-6.54.84-10.74 1.3-4.2.46-8 .82-10.77 1.07l-3.23.2-.89.08-.34.09Z" fill="#263238"/><path d="M165 452a6.994 6.994 0 0 1 .43-1.62 7.634 7.634 0 0 1 1-1.37 2.467 2.467 0 0 0-1.17 1.28A2.34 2.34 0 0 0 165 452ZM159.39 449.89c.05 0 .27-.31.49-.76.158-.255.257-.542.29-.84 0 0-.27.31-.49.75-.22.44-.35.82-.29.85ZM157.85 449.28c.05 0 .31-.18.59-.49.28-.31.46-.6.42-.64-.04-.04-.31.18-.59.49-.28.31-.46.6-.42.64ZM156.75 447.69c.312.076.638.076.95 0 .318.004.633-.064.92-.2a1.993 1.993 0 0 0-1 0 2.079 2.079 0 0 0-.87.2ZM156.3 446.53a1.82 1.82 0 0 0 1.08.19c.373.025.744-.07 1.06-.27a6.08 6.08 0 0 0-1.07.05 5.797 5.797 0 0 0-1.07.03Z" fill="#263238"/><path d="M159.82 448.25c.388.027.778-.017 1.15-.13a6.27 6.27 0 0 0 1.2-.41c.236-.094.461-.215.67-.36a.64.64 0 0 0 .25-.39.496.496 0 0 0-.23-.45 2.143 2.143 0 0 0-2.54.91 1.882 1.882 0 0 0-.29.81.692.692 0 0 0 0 .32c.083-.355.225-.693.42-1 .221-.336.538-.597.91-.75a1.784 1.784 0 0 1 1.38-.06c.2.11.15.34 0 .48-.19.138-.395.255-.61.35a7.84 7.84 0 0 1-1.16.44c-.71.16-1.15.21-1.15.24Z" fill="#263238"/><path d="M160.13 448.28c.1-.264.1-.556 0-.82a1.75 1.75 0 0 0-.41-.8 1.13 1.13 0 0 0-1-.48.472.472 0 0 0-.3.57c.051.18.14.347.26.49.178.239.387.454.62.64.202.185.446.318.71.39 0 0-.25-.18-.61-.51a4.06 4.06 0 0 1-.56-.64c-.19-.22-.34-.65-.06-.73.28-.08.61.19.81.4.186.205.325.447.41.71.065.256.109.517.13.78ZM140.59 449.22s.51-.1 1.33-.1a5.646 5.646 0 0 1 5.11 3.22c.36.74.44 1.26.48 1.25.04-.01 0-.14 0-.37a4.255 4.255 0 0 0-.3-.94 5.481 5.481 0 0 0-5.25-3.31 4.22 4.22 0 0 0-1 .13 1.294 1.294 0 0 0-.37.12ZM149.61 451.69c.88.111 1.77.111 2.65 0 .884-.06 1.757-.228 2.6-.5 0-.07-1.18.14-2.62.28-1.44.14-2.63.15-2.63.22Z" fill="#263238"/><path d="M146.1 452.07c0 .05.12.24.27.49.15.25.24.49.31.48.07-.01.06-.29-.12-.59s-.43-.45-.46-.38ZM144.59 450.57c0 .05.1.22.31.39s.4.26.44.22c.04-.04-.1-.22-.3-.39-.2-.17-.41-.27-.45-.22ZM142.62 450c0 .06.25 0 .53.09s.48.19.52.14c.04-.05-.14-.28-.48-.35-.34-.07-.6.12-.57.12ZM141.23 449.82c0 .06.1.14.25.18.15.04.29 0 .31 0 .02 0-.1-.14-.25-.18-.15-.04-.3-.06-.31 0ZM145.62 165c-1.43-7.65-9.88-11.9-13.18-19-1.29-2.74-1.75-5.83-3.16-8.51a13.69 13.69 0 0 0-16.69-6.05l-.53.82c3.42 7.18 6.83 12.11 10.24 19.28a25.713 25.713 0 0 1 2.72 7.85c.31 2.77-.43 5.81-2.57 7.59-1.72 1.42-4 1.85-5.9 3.09a9.624 9.624 0 0 0-3.77 8.94 16.187 16.187 0 0 0 4.45 9c2.2 2.41 5.68 4.47 8.58 3 1.47-.76 2.38-2.24 3.46-3.49 2.22-2.55 5.28-4.17 8-6.17 5.22-3.79 9.54-9.98 8.35-16.35Z" fill="#263238"/><path d="M219.16 200.56c-1.92 1.75-12.37 10.53-12.37 10.53l-10.37-9.44c.27-.77 2.81-5.13 3.1-6.22a8.287 8.287 0 0 0 .26-2.89 13.272 13.272 0 0 0-.64-3.56c-.46-1 .56-2.06 1.44-1.56.88.5 2.2 3.28 2.16 6.86-.04 3.58 14-4.64 16-2.63l.42 8.91Z" fill="#FFBE9D"/><path d="m130 186.47 34.4 41.17 31.6-28.56 13.78 13.44s-39.65 43.63-45.7 43.32c-6.05-.31-26.6-13.9-26.6-13.9L130 186.47Z" fill="#FF725E"/><path d="M208.09 180.34a.555.555 0 0 0-.416.025.555.555 0 0 0-.284.305L198 204.25a.89.89 0 0 0 .45 1.14l11.1 5.3a.914.914 0 0 0 .703.027.902.902 0 0 0 .507-.487l10.51-24.44a.897.897 0 0 0-.218-1.012.905.905 0 0 0-.312-.188l-12.65-4.25Z" fill="#263238"/><path d="m207.79 182.04-8.6 21.04 11.63 5.27 8.81-22.31-11.84-4Z" fill="#F5F5F5"/><path d="M204.44 218.65a15.454 15.454 0 0 1-2.45-1.73 74.512 74.512 0 0 1-5.42-4.78 71.51 71.51 0 0 1-4.92-5.3 14.152 14.152 0 0 1-1.79-2.39 22.007 22.007 0 0 1 2.07 2.15c1.25 1.35 3 3.2 5 5.16s3.9 3.66 5.29 4.87a21.665 21.665 0 0 1 2.22 2.02ZM194.55 203.1c.07.06-.36.4-.31 1.13a1.422 1.422 0 0 0 .51 1 1.298 1.298 0 0 0 1.832-.455c.116-.206.174-.439.168-.675a1.434 1.434 0 0 0-.63-1c-.348-.197-.74-.3-1.14-.3 0 0 .09-.12.33-.17a1.45 1.45 0 0 1 1 .15 1.724 1.724 0 0 1 .92 1.21 1.728 1.728 0 0 1-1.809 1.892 1.738 1.738 0 0 1-.921-.322 1.682 1.682 0 0 1-.59-1.4c.011-.347.142-.679.37-.94.12-.1.26-.14.27-.12ZM163.06 239.67a5.203 5.203 0 0 1-.51-1.79 16.3 16.3 0 0 1 1-8.81 5 5 0 0 1 .9-1.63 36.02 36.02 0 0 0-1.49 6 36.413 36.413 0 0 0 .1 6.23Z" fill="#263238"/><path d="M168 239.35a5.22 5.22 0 0 1-1.11-1.54 19.151 19.151 0 0 1-2.54-8.76 5.447 5.447 0 0 1 .11-1.9 52.192 52.192 0 0 0 1.13 6.29 51.007 51.007 0 0 0 2.41 5.91Z" fill="#263238"/><path d="m207.99 185.96-5.69 14.15 8.52 3.49 5.94-14.46-8.77-3.18Z" fill="#EBEBEB"/><path d="m210.381 199.911-5.038-2.105a.73.73 0 0 0-.955.392l-.096.23a.73.73 0 0 0 .392.955l5.037 2.106a.73.73 0 0 0 .955-.392l.097-.231a.73.73 0 0 0-.392-.955Z" fill="#FF725E"/><path d="m214.939 190.653-6.317-2.378-.345.917 6.317 2.378.345-.917Z" fill="#455A64"/><path d="m214.077 193.843-6.982-2.629-.68 1.807 6.982 2.628.68-1.806ZM212.919 196.738l-6.981-2.628-.681 1.806 6.982 2.628.68-1.806Z" fill="#E0E0E0"/><path d="M218.79 191.65c-1.61.26-3.57.42-5.18.69a2.99 2.99 0 0 0-1.3.43A1.002 1.002 0 0 0 212 194c.25.45.89.49 1.41.48l3.55-.12c-1.515.068-3.016.32-4.47.75-.66.22-1.4.67-1.42 1.37a1.312 1.312 0 0 0 1.18 1.18 14.8 14.8 0 0 0 1.86 0s2.43 0 2.53.36c-1.51 0-3.52.31-5 .45-.42 0-.61.6-.71 1a.938.938 0 0 0 .44 1.06c.193.065.398.085.6.06l5.88-.18" fill="#FFBE9D"/><path d="M117.84 184s7.15-.84 12.17 2.46c4.53 3 20.43 48.54 19.81 62.06-.62 13.52 1.11 37.36 3.89 47.18 2.78 9.82 4.88 95-17 135.58l-40.75-5.72 12.74-109.43-1.3-99.27L117.84 184Z" fill="#FF725E"/><path opacity=".3" d="M115.49 184s7.16-.84 12.18 2.46c4.53 3 20.42 48.54 19.81 62.06-.61 13.52 1.1 37.36 3.89 47.18s4.88 95-17 135.58l-37.25-5.72 9.24-109.43-1.36-99.26L115.49 184Z" fill="#000"/><path d="M100.51 181.91s-22.41-2.41-16.42 29.62l5.76 33.7 36.59 22.14c4.94 1.33.74-23 8.18-34.26 2.79-4.21 3-7.36 2.79-9.3.71-7.35-5.18-11.93-6-19.36-.92-10.76-.88-16.72-5.56-17.93l-25.32-4.61" fill="#455A64"/><path d="M131.82 201.89a9.838 9.838 0 0 0 0 4.72 18.994 18.994 0 0 0 2 4.78 41.503 41.503 0 0 1 2.86 5.78 18.408 18.408 0 0 1 .15 11.61 16.618 16.618 0 0 1-1.42 3.25c-.202.389-.45.751-.74 1.08a30.126 30.126 0 0 0 1.81-4.44 18.9 18.9 0 0 0-.29-11.32 44.971 44.971 0 0 0-2.79-5.73 18.152 18.152 0 0 1-1.9-4.93 8.929 8.929 0 0 1-.06-3.56c.061-.321.152-.636.27-.94.04-.19.09-.31.11-.3Z" fill="#263238"/><path d="M120.6 184.22c-.53-5.51-1-11.32-1-11.32s7-1.88 7.54-11.29c.53-9-2.18-24.6-2.18-24.6v-.79c-10.63-3.16-23.21-3-29.69 5.86l5 44.7c.59 5.19 5.51 8.83 11.06 8.16 5.67-.67 9.77-5.47 9.27-10.72Z" fill="#FFBE9D"/><path d="M125 148.36a1.201 1.201 0 0 1-1 1.31 1.152 1.152 0 0 1-.866-.194 1.13 1.13 0 0 1-.464-.756 1.203 1.203 0 0 1 1-1.31 1.146 1.146 0 0 1 .866.194 1.13 1.13 0 0 1 .464.756ZM125 147.05c-.14.17-1.1-.4-2.38-.28-1.28.12-2.15.87-2.31.72-.16-.15 0-.35.43-.69a3.274 3.274 0 0 1 1.83-.77 3.123 3.123 0 0 1 1.91.42c.39.26.52.55.52.6ZM111.68 150.09a1.201 1.201 0 0 1-1.463 1.296 1.147 1.147 0 0 1-.867-.986 1.2 1.2 0 0 1 1.463-1.296 1.155 1.155 0 0 1 .724.545c.078.136.126.286.143.441Z" fill="#263238"/><path d="M111.67 148.83c-.13.17-1.1-.41-2.37-.28-1.27.13-2.15.86-2.31.72-.16-.14.05-.36.43-.7a3.267 3.267 0 0 1 1.83-.76 3.141 3.141 0 0 1 1.91.41c.42.27.58.53.51.61ZM117.25 157.85a8.544 8.544 0 0 1 2-.57c.32-.07.62-.17.65-.39a1.569 1.569 0 0 0-.31-.95l-1.21-2.39a43.97 43.97 0 0 1-2.81-6.29 42.396 42.396 0 0 1 3.31 6.05l1.17 2.41c.245.372.352.818.3 1.26a.812.812 0 0 1-.49.53 1.863 1.863 0 0 1-.55.13 7.761 7.761 0 0 1-2.06.21Z" fill="#263238"/><path d="M119.62 172.9a23.73 23.73 0 0 1-12.73-2.09s3.63 6.06 12.82 4.28l-.09-2.19Z" fill="#EB996E"/><path d="M117 161a2.31 2.31 0 0 0-2.15-.65 2.106 2.106 0 0 0-1.38.92 1.341 1.341 0 0 0 0 1.53 1.569 1.569 0 0 0 1.72.26 4.87 4.87 0 0 0 1.54-1.14 1.44 1.44 0 0 0 .33-.41.44.44 0 0 0-.05-.48" fill="#FF725E"/><path d="M113.57 159.11c.21 0 .35 1.35 1.63 2.22 1.28.87 2.75.57 2.78.76.03.19-.3.31-.93.38a3.424 3.424 0 0 1-2.31-.55 3.089 3.089 0 0 1-1.28-1.88c-.11-.57.02-.93.11-.93ZM76.71 310.17 62.5 368.73S45.56 438.85 45 440.7l-.53 2.18 23.87 1.8 41.36-130.07-32.99-4.44Z" fill="#263238"/><path d="M119.68 351.28c3.86 18.67 18 97 18 97l24.21-2.49-13.77-99.91a32.802 32.802 0 0 0-1.58-7.66l-22.63-67.85-42.56-27.07c-.42 0-6.89 17.49-6 29.61A31.052 31.052 0 0 0 80.82 288c2.71 3.95 6.48 9.46 7.32 10.74 1.35 2.04 31.54 52.54 31.54 52.54Z" fill="#263238"/><path d="M71.27 266.82c-1.16 4.22-2.13 8.49-2.88 12.8-2.72 15.69-9.64 53.87-14.13 64-5.69 12.8-14.93 61.15-12.09 70 2.84 8.85 64.71 17.78 64.71 17.78s3.55-57.95 7.11-72.52c3.56-14.57 11-46.58 12.08-65.42 1.08-18.84.71-51.55-5.33-71.81-6.04-20.26-19.94-41.55-19.94-41.55s-11.88 3.28-15.93 8c0 0-4.94 6.06-5 11.83-.06 5.77-2.74 33.2-4.53 49.14-.56 4.55-2.57 12.34-4.07 17.75Z" fill="#FF725E"/><path d="M126.13 292.5a.83.83 0 0 1 0-.29v-.85c0-.78-.09-1.87-.16-3.26a104.914 104.914 0 0 0-1.15-12 40.164 40.164 0 0 0-2.17-8 30.774 30.774 0 0 0-4.77-8.14c-2.05-2.63-4.48-5.18-6.84-8a47.807 47.807 0 0 1-3.39-4.46 25.775 25.775 0 0 1-2.63-5.15 16.806 16.806 0 0 1-.62-11.25 22.516 22.516 0 0 1 2.61-4.74 9.08 9.08 0 0 0 1-2.3 3.43 3.43 0 0 0 .09-1.19 2.388 2.388 0 0 0-.4-1.07 3.587 3.587 0 0 0-1.86-1.34c-.75-.28-1.54-.49-2.29-.84a4.449 4.449 0 0 1-1.87-1.56 5.575 5.575 0 0 1-.8-2.21 14.787 14.787 0 0 1 .11-4.37c.2-1.37.39-2.69.57-3.94.74-5 1.33-9.06 1.75-11.9.22-1.38.38-2.46.5-3.24l.15-.83c.014-.098.034-.195.06-.29a.882.882 0 0 1 0 .29c0 .22 0 .5-.09.85-.1.78-.23 1.86-.41 3.24-.38 2.86-.92 6.92-1.58 11.93-.17 1.26-.35 2.58-.54 3.95a14.625 14.625 0 0 0-.09 4.24c.108.712.363 1.393.75 2a3.91 3.91 0 0 0 1.7 1.4c.69.32 1.47.52 2.26.81a4.081 4.081 0 0 1 2.1 1.52c.251.382.412.816.47 1.27.047.456.013.916-.1 1.36a8.871 8.871 0 0 1-1.08 2.44 22.526 22.526 0 0 0-2.56 4.66 16.374 16.374 0 0 0 .63 10.9 31.731 31.731 0 0 0 5.92 9.46c2.34 2.8 4.77 5.36 6.83 8A31.458 31.458 0 0 1 123 268a39.955 39.955 0 0 1 2.13 8.06 93.443 93.443 0 0 1 1 12c0 1.393.02 2.483.06 3.27v.85c-.05.22-.06.32-.06.32ZM118.24 300.42s.05-.16.29-.32a1.668 1.668 0 0 1 1.17-.2 1.638 1.638 0 0 1 1.34 1.18 1.78 1.78 0 0 1-2.94 1.82 1.625 1.625 0 0 1-.44-1.73c.124-.393.387-.727.74-.94.25-.13.41-.13.42-.1-.387.28-.669.681-.8 1.14a1.238 1.238 0 0 0 .4 1.27 1.313 1.313 0 0 0 1.591.158 1.308 1.308 0 0 0 .559-1.498 1.256 1.256 0 0 0-.95-.94 2.304 2.304 0 0 0-1.38.16ZM111.61 334.88s.06-.16.3-.31a1.607 1.607 0 0 1 1.17-.21 1.656 1.656 0 0 1 1.34 1.18 1.78 1.78 0 0 1-3.357 1.179 1.694 1.694 0 0 1 .161-1.482c.139-.219.325-.402.546-.537.25-.14.42-.14.42-.11-.38.286-.66.685-.8 1.14a1.261 1.261 0 0 0 .41 1.27 1.424 1.424 0 0 0 1.59.16c.232-.166.41-.397.51-.664.099-.268.117-.559.05-.836a1.255 1.255 0 0 0-1-.94 2.368 2.368 0 0 0-1.34.16ZM111.4 291.77c.017.109.017.221 0 .33 0 .253-.03.587-.09 1-.09.89-.23 2.15-.41 3.76-.38 3.27-1 8-1.83 13.82-.44 2.91-1 6.09-1.67 9.48a30.923 30.923 0 0 1-1.44 5.2 5.747 5.747 0 0 1-.31.66 2.496 2.496 0 0 1-.5.57 5.25 5.25 0 0 1-1.24.8c-.887.404-1.812.722-2.76.95A65.552 65.552 0 0 1 89 329.7c-4.373.179-8.752.128-13.12-.15l-.56-.07a.807.807 0 0 1-.6-.43 3.142 3.142 0 0 1-.31-1.14 14.636 14.636 0 0 1-.06-2.19c0-1.44.18-2.85.34-4.24.33-2.79.76-5.5 1.21-8.13.9-5.26 1.89-10.21 2.87-14.74v-.17H79a140.977 140.977 0 0 0 23.67-4.11c2.81-.74 5-1.41 6.49-1.86l1.73-.53c.183-.065.37-.119.56-.16l-.15.06-.44.16c-.39.15-.92.35-1.66.6-1.47.5-3.66 1.2-6.46 2A133.856 133.856 0 0 1 79 298.88l.2-.18c-1 4.53-1.93 9.48-2.82 14.73-.44 2.63-.86 5.34-1.18 8.11-.16 1.38-.3 2.79-.34 4.2-.035.704-.015 1.409.06 2.11a3 3 0 0 0 .24.94c.09.12.12.16.23.18l.53.06c4.347.282 8.707.335 13.06.16a64.878 64.878 0 0 0 12-1.33 14.322 14.322 0 0 0 2.68-.91 3.081 3.081 0 0 0 1.83-1.79 30.604 30.604 0 0 0 1.44-5.1c.72-3.37 1.26-6.55 1.72-9.45.93-5.81 1.56-10.52 2-13.78.22-1.61.39-2.87.51-3.76.06-.4.1-.73.14-1 .04-.27.1-.3.1-.3Z" fill="#263238"/><path d="M110.76 299.06a5.982 5.982 0 0 1-1.19.62c-.78.37-1.94.85-3.38 1.39a63.832 63.832 0 0 1-23.7 3.93c-1.55 0-2.8-.13-3.65-.23a7.278 7.278 0 0 1-1.33-.19c.445-.05.895-.05 1.34 0 .86 0 2.1.06 3.64.06a73 73 0 0 0 23.57-3.92c1.46-.5 2.63-.93 3.43-1.24a6.753 6.753 0 0 1 1.27-.42Z" fill="#263238"/><path d="m54.64 270.86.09-.47c.07-.34.17-.79.3-1.38.29-1.22.71-3 1.24-5.26 1.1-4.56 2.77-11.14 4.94-19.24l3.59-13.24c1.3-4.76 2.67-9.85 4.3-15.16a122.753 122.753 0 0 1 6.17-16.29 75.361 75.361 0 0 1 4.43-8.09 29.251 29.251 0 0 1 2.77-3.85 11.743 11.743 0 0 1 3.77-3 6.51 6.51 0 0 1 4.84-.38 8.321 8.321 0 0 1 3.86 2.83c2 2.58 2.5 5.82 2.79 8.79.51 6 1 11.82 1.47 17.35.92 11.05 1.75 21 2.45 29.36.7 8.36 1.23 15.1 1.61 19.8.18 2.32.32 4.13.41 5.39 0 .6.07 1.06.1 1.4.009.16.009.32 0 .48 0 0 0-.16-.07-.47-.07-.31-.08-.81-.14-1.4l-.51-5.38c-.42-4.7-1-11.45-1.77-19.79s-1.6-18.31-2.57-29.35c-.48-5.53-1-11.33-1.5-17.34-.29-2.95-.79-6.1-2.68-8.52a7.826 7.826 0 0 0-3.61-2.65 5.93 5.93 0 0 0-4.45.35 11.37 11.37 0 0 0-3.61 2.9 28.12 28.12 0 0 0-2.72 3.75 75.163 75.163 0 0 0-4.41 8 123.566 123.566 0 0 0-6.17 16.21c-1.64 5.29-3 10.38-4.34 15.13-1.34 4.75-2.54 9.18-3.65 13.22-2.22 8.09-3.94 14.66-5.1 19.2-.58 2.26-1 4-1.33 5.24-.16.58-.27 1-.36 1.36-.09.36-.14.5-.14.5Z" fill="#455A64"/><path d="M52.19 267.41c-.39 1.56-7.66 42.93-7.66 42.93l54.09 1.75 7.45-42.9-53.88-1.78Z" fill="#263238"/><path d="M105.51 270a3.213 3.213 0 0 1-.49.37c-.32.23-.82.55-1.46 1-1.27.82-3.15 2-5.51 3.31s-5.21 2.88-8.46 4.42c-1.63.76-3.32 1.57-5.19 2.24a17.991 17.991 0 0 1-6 .88 28.347 28.347 0 0 1-11.4-2.98 41.677 41.677 0 0 1-8-5.24 75.628 75.628 0 0 1-4.8-4.28c-.54-.53-1-.95-1.24-1.24a3.415 3.415 0 0 1-.4-.46c.173.11.333.237.48.38.33.31.77.69 1.3 1.17 1.13 1 2.76 2.47 4.89 4.14a42.551 42.551 0 0 0 8 5.06 28.335 28.335 0 0 0 11.12 2.84c1.99.051 3.974-.233 5.87-.84 1.8-.65 3.53-1.45 5.15-2.19 3.24-1.52 6.1-3 8.48-4.31 2.38-1.31 4.28-2.4 5.59-3.16l1.51-.88c.175-.102.364-.18.56-.23Z" fill="#455A64"/><path d="M102.2 271.82c.14 0-1.31 9-3.24 20.13-1.93 11.13-3.61 20.05-3.75 20.05-.14 0 1.31-9 3.24-20.12 1.93-11.12 3.61-20.08 3.75-20.06ZM76.76 280.54c-.15 1.34-.29 2.69-.44 4-.075.42-.075.85 0 1.27a1.196 1.196 0 0 0 .84.89c.247.025.495-.029.71-.153.216-.123.387-.311.49-.537.198-.458.296-.952.29-1.45.07-1.44.15-2.88.23-4.31h-1.76" fill="#455A64"/><path d="M87.9 185.56c4.4-1.48 8.07 4.22 8.57 8.83a98.886 98.886 0 0 1 .3 16c-.79 15.76-7.92 30.83-7.92 30.83l45.24 6.78-1.66 17.4-57.21-6.14a13.557 13.557 0 0 1-11.53-17.46c5.11-16.67 13.46-40.64 15.31-44.61 2.56-5.35 2.85-9.61 8.9-11.63Z" fill="#FF725E"/><path d="M73.06 258.8h.3l.86.12 3.31.5c2.9.4 7.11 1 12.4 1.61 10.58 1.25 25.44 2.73 42.51 4l-.27.23c.53-5.53 1.09-11.37 1.66-17.37l.22.28-45.23-6.81h-.25l.08-.23c2.94-9.1 5.19-16.63 6.53-21.93.68-2.64 1.15-4.73 1.44-6.15l.33-1.62c.08-.36.13-.55.13-.55s0 .19-.06.56c-.06.37-.14.92-.28 1.64-.25 1.43-.69 3.52-1.33 6.18-1.27 5.32-3.46 12.88-6.36 22l-.18-.27 45.26 6.71h.24v.25c-.57 6-1.13 11.83-1.66 17.37v.25h-.24c-17.08-1.34-31.94-2.89-42.52-4.23-5.28-.66-9.49-1.3-12.38-1.76L74.2 259l-.85-.16-.29-.04Z" fill="#263238"/><path d="M123.52 264.62c.012-3.009.203-6.014.57-9a76.042 76.042 0 0 1 1.1-9 80.597 80.597 0 0 1-.58 9 79.372 79.372 0 0 1-1.09 9ZM129.27 249.57s.12-.07.34 0c.318.07.598.26.78.53a1.306 1.306 0 0 1 .08 1.43 1.497 1.497 0 0 1-1.589.731 1.502 1.502 0 0 1-1.201-1.271 1.442 1.442 0 0 1 .06-.731c.082-.235.223-.445.41-.609.65-.55 1.22-.36 1.19-.31-.03.05-.49.08-.93.57a1.084 1.084 0 0 0-.26 1 1.145 1.145 0 0 0 .83.86 1.117 1.117 0 0 0 1.08-.48.996.996 0 0 0 0-1c-.3-.61-.8-.64-.79-.72Z" fill="#263238"/><path d="m143.84 242.87 2.06 21.43h10.45l2.5-21.43h-15.01Z" fill="#EBEBEB"/><path d="M143.84 240.1c-.649.8-1.002 1.8-1 2.83h17a3.157 3.157 0 0 0-1-2.83h-15Z" fill="#455A64"/><path d="m145.77 238.13-.57 2.12 12.81.1-.85-2.24-11.39.02ZM143.62 248.23c0 .2 1.25 10.79 1.25 10.79h12.77l1.21-10.79h-15.23Z" fill="#455A64"/><path d="m144.42 246.34-.33 3.59 12.36.29s0 4.17-1.25 5.42c0 0 1.25 2.5-.14 3.89-1.39 1.39-2.22 1-2.22 1s.56 2.78-.83 3.48c-1.39.7-19.42-.38-19.42-.38L133.7 252l4-.35c.17-3.85 4.15-5.76 6.72-5.31Z" fill="#FFBE9D"/><path d="M128.77 137.1a9.192 9.192 0 0 0-3.93-5 6.903 6.903 0 0 0-4.19-.86v-.3c-1.34-2.41-4-2.93-6.74-2.47-2.74.46-5.44 2.46-7.88 3.76-3.3 1.76-6.45 3.77-9.61 5.78-2.62 1.67-5.3 3.41-7.11 5.93a12.345 12.345 0 0 0-2.07 9.3c.65 3.51 2.81 7.06 1.53 10.39-.86 2.21-3 3.6-4.46 5.5a8.889 8.889 0 0 0-.19 10.36c1.46 2 3.69 3.14 5.73 4.48 3.23 2.13 6.12 4.81 9.6 6.52 3.48 1.71 7.89 2.26 11.09.08 3.2-2.18 4.36-6.75 3.77-10.7-.59-3.95-2.49-7.55-4-11.24a62.206 62.206 0 0 1-4.11-15c-.29-2.06-.45-4.26.52-6.09.88-1.64 2.53-2.69 4-3.81a31.878 31.878 0 0 0 8.58-9.8 12.502 12.502 0 0 0 3.43 4.8 31.06 31.06 0 0 0 6.73 4.76 15.567 15.567 0 0 0-.69-6.39Z" fill="#263238"/><path d="M444.27 434.17c-.67-2.64 1.08-5.29 3-7.2 1.92-1.91 4.29-3.61 5.32-6.14 1.66-4.1-.51-9.44 2.3-12.85 1.66-2 4.61-2.66 6.08-4.81a11.172 11.172 0 0 0 1.34-3.85 39.09 39.09 0 0 1 9.83-18.14 33.911 33.911 0 0 1-3.92 17.52c-1.14 2.15-2.54 4.24-2.93 6.65-.63 3.9 1.52 7.94.54 11.77-1.12 4.38-6.06 7.29-6.32 11.8-.22 3.82 3.09 7.19 2.82 11a10.311 10.311 0 0 1-1.73 4.52c-3 4.89-7.33 8.25-13.91 8.1l-8.05.24 5.63-18.61Z" fill="#FF725E"/><path opacity=".3" d="M444.27 434.17c-.67-2.64 1.08-5.29 3-7.2 1.92-1.91 4.29-3.61 5.32-6.14 1.66-4.1-.51-9.44 2.3-12.85 1.66-2 4.61-2.66 6.08-4.81a11.172 11.172 0 0 0 1.34-3.85 39.09 39.09 0 0 1 9.83-18.14 33.911 33.911 0 0 1-3.92 17.52c-1.14 2.15-2.54 4.24-2.93 6.65-.63 3.9 1.52 7.94.54 11.77-1.12 4.38-6.06 7.29-6.32 11.8-.22 3.82 3.09 7.19 2.82 11a10.311 10.311 0 0 1-1.73 4.52c-3 4.89-7.33 8.25-13.91 8.1l-8.05.24 5.63-18.61Z" fill="#000"/><path d="M437 453a6.594 6.594 0 0 1-2.22-.06 13.892 13.892 0 0 1-2.61-.67 11.159 11.159 0 0 1-3.22-1.79 4.45 4.45 0 0 1-1.32-1.78 8.278 8.278 0 0 1-.37-2.41 23.303 23.303 0 0 0-.17-2.6 7.292 7.292 0 0 0-1-2.6c-.94-1.67-2.51-3.26-3-5.53-.49-2.27-.13-4.64.25-7.05s.77-5.05-.14-7.57c-.91-2.52-2.6-4.8-3.47-7.65-.87-2.85-.44-5.95-.6-9a12.049 12.049 0 0 0-1-4.48c-.64-1.43-1.54-2.78-2.23-4.28-1.42-3-1.65-6.48-2-9.86-.18-1.69-.36-3.41-.55-5.14a25.624 25.624 0 0 0-.86-5.16 46.678 46.678 0 0 0-1.9-5 15.856 15.856 0 0 1-.92-2.61c-.15-.95-.19-1.84-.25-2.77-.076-1.86.007-3.724.25-5.57.23-1.86.58-3.7.79-5.56v-.32l.05-.37.33.16a12.418 12.418 0 0 1 4.36 3.67 19.505 19.505 0 0 1 2.64 4.92 61.06 61.06 0 0 1 2.45 10.56 28.492 28.492 0 0 0 3.25 9.75c.87 1.44 1.93 2.76 2.86 4.16a11.55 11.55 0 0 1 2 4.6c.46 3.41-1.44 6.39-1.06 9.41a10.567 10.567 0 0 0 1.44 4.19c.73 1.29 1.58 2.49 2.39 3.69a23.491 23.491 0 0 1 2.14 3.73 11.808 11.808 0 0 1 1 4c.19 2.72-.21 5.29 0 7.72.224 2.32.904 4.573 2 6.63 1 2 2 3.78 2.93 5.53.45.87.87 1.72 1.21 2.57.32.823.551 1.678.69 2.55a15.69 15.69 0 0 1 0 4.59 11.537 11.537 0 0 1-2.33 5.85 5.024 5.024 0 0 1-.66.7c-.16.169-.337.32-.53.45-.3.22-.46.32-.46.32a10.97 10.97 0 0 0 1.57-1.53 11.719 11.719 0 0 0 2.21-5.81c.19-1.506.166-3.031-.07-4.53a13.124 13.124 0 0 0-.7-2.49 27.798 27.798 0 0 0-1.22-2.54c-.9-1.73-2-3.52-3-5.52a18.183 18.183 0 0 1-2-6.74c-.19-2.49.19-5.07 0-7.72a11.486 11.486 0 0 0-.94-3.91 22.904 22.904 0 0 0-2.12-3.65c-.81-1.2-1.67-2.4-2.42-3.72a10.997 10.997 0 0 1-1.51-4.35c-.37-3.22 1.51-6.22 1-9.39a10.99 10.99 0 0 0-1.91-4.4c-.91-1.38-2-2.69-2.88-4.17a29.17 29.17 0 0 1-3.33-9.92c-.66-3.48-1.12-7.07-2.43-10.47a19.028 19.028 0 0 0-2.56-4.79 12.001 12.001 0 0 0-4.13-3.53l.37-.21v.33c-.21 1.88-.56 3.73-.78 5.56A31.658 31.658 0 0 0 410 365c.05.9.1 1.84.23 2.69.232.858.53 1.697.89 2.51a46.197 46.197 0 0 1 1.92 5.05 25.15 25.15 0 0 1 .87 5.24c.18 1.73.37 3.45.54 5.15.37 3.39.6 6.77 2 9.71.67 1.46 1.57 2.81 2.23 4.29a12.43 12.43 0 0 1 1 4.64c.16 3.11-.26 6.14.56 8.9.82 2.76 2.57 5 3.44 7.64.87 2.64.53 5.35.13 7.75-.4 2.4-.81 4.78-.3 6.93.51 2.15 2 3.74 2.93 5.46a7.441 7.441 0 0 1 1 2.69c.097.877.147 1.758.15 2.64a8.27 8.27 0 0 0 .33 2.34 4.292 4.292 0 0 0 1.24 1.7c.94.769 2.001 1.378 3.14 1.8.836.32 1.699.561 2.58.72.538.097 1.083.151 1.63.16l.49-.01Z" fill="#263238"/><path d="M412.14 358c.028.082.051.165.07.25l.18.72c.15.64.33 1.59.63 2.79s1 2.55 1.65 4.22a59.283 59.283 0 0 1 1.88 5.72c.6 2.15 1.13 4.54 1.69 7.09a29.601 29.601 0 0 0 2.53 7.88c.65 1.31 1.39 2.64 2 4.09a18.56 18.56 0 0 1 1.13 4.63 95.207 95.207 0 0 0 1.68 9.75l4.42 18.61c1.4 5.71 2.67 10.86 3.73 15.2s1.88 7.79 2.47 10.25c.27 1.18.49 2.12.65 2.8l.15.73a1.16 1.16 0 0 1 0 .25.891.891 0 0 1-.09-.24l-.21-.72c-.18-.67-.42-1.6-.74-2.77-.63-2.45-1.52-5.93-2.63-10.21-1.11-4.28-2.39-9.47-3.83-15.17-1.44-5.7-2.9-12-4.49-18.64a90.835 90.835 0 0 1-1.68-9.79 18.821 18.821 0 0 0-1.09-4.51c-.56-1.42-1.29-2.74-1.94-4.06a30.129 30.129 0 0 1-2.52-8c-.54-2.57-1.05-4.95-1.62-7.09-.57-2.14-1.19-4.06-1.8-5.72-.61-1.66-1.28-3-1.57-4.27-.29-1.27-.42-2.17-.55-2.82l-.12-.73a1.016 1.016 0 0 1 .02-.24Z" fill="#263238"/><path d="M435.62 453c-5.25-3.16-6.7-12.66-4.47-18.36 2.23-5.7 6.09-10.89 6.72-17 .48-4.67-1-9.49.09-14.06 1.51-6.16 7.56-10.91 7.53-17.26 0-3.56-2-6.92-1.85-10.48.23-4.36 3.6-7.8 5.69-11.64 3.21-5.86 3.46-12.82 4.58-19.41s3.68-13.64 9.55-16.85c.83 5.61 2.28 9.45 1.77 17-.18 2.72-3.37 7.92-3.84 13.89-.28 3.57-.47 7.14-.71 10.71-.24 3.57-.48 7-1.74 10.26-1 2.49-2.52 4.74-3.24 7.31-1.37 4.83.36 10.09-.75 15-.93 4.15-3.83 7.7-4.44 11.92-.86 5.91 2.94 12.08.94 17.72-1 2.79-3.3 5-4 7.92-.52 2.24 0 4.62-.46 6.87-.76 3.63-7.7 6.42-11.4 6.17" fill="#FF725E"/><path d="M462 333.51c.011.106.011.214 0 .32l-.12.92c-.13.81-.27 2-.55 3.53-.28 1.53-1.11 3.28-1.76 5.37-.65 2.09-1.36 4.49-2 7.19-.64 2.7-1.13 5.68-1.68 8.89a37.351 37.351 0 0 1-2.75 10c-.75 1.67-1.59 3.35-2.22 5.14a23.383 23.383 0 0 0-1.14 5.68c-.313 4.106-.85 8.193-1.61 12.24-1.66 8.29-3.24 16.18-4.67 23.37-1.43 7.19-2.88 13.61-4 19-1.12 5.39-2.1 9.76-2.75 12.82a278.622 278.622 0 0 1-.99 4.39 2.589 2.589 0 0 1-.09.3 1.237 1.237 0 0 1 0-.31c.05-.24.1-.54.17-.92l.68-3.5 2.59-12.86c1.12-5.43 2.44-11.89 3.92-19.06 1.48-7.17 3-15.08 4.63-23.36a116.754 116.754 0 0 0 1.61-12.2 24.285 24.285 0 0 1 1.18-5.8c.65-1.82 1.5-3.51 2.25-5.17a37.511 37.511 0 0 0 2.77-9.93c.56-3.2 1.1-6.19 1.74-8.89a74.567 74.567 0 0 1 2.05-7.2c.68-2.1 1.51-3.82 1.84-5.33.33-1.51.48-2.7.64-3.5.07-.38.13-.68.18-.91.05-.23.08-.22.08-.22Z" fill="#263238"/></svg>