<svg width="500" height="500" fill="none" xmlns="http://www.w3.org/2000/svg"><path d="M431.67 117.79a13.296 13.296 0 0 0 7.92-12.29c0-7.34-5.53-13.31-12.41-13.34-6.88-.03-12.48 5.89-12.51 13.23a13.264 13.264 0 0 0 7.94 12.4c-19.17 2.89-18.3 23.73-18.3 23.73l45.33.21s1.04-21.07-17.97-23.94ZM163.82 39.92l-29.63-10.48-29.34 10.34c-3.74 1.74-7 2.78-7 6.22v17.11a63.922 63.922 0 0 0 9.67 34 59.874 59.874 0 0 0 27 23.48c12-3.84 20.94-14.06 26.42-22.81a64.002 64.002 0 0 0 9.66-34V48.39c-.04-4.9-2.68-7.29-6.78-8.47Z" fill="#F5F5F5"/><path d="M144 67.54a8.197 8.197 0 0 0-8.934-8.205 8.199 8.199 0 0 0-1.506 16.055v12.27h4.48V75.39a8.17 8.17 0 0 0 5.96-7.85Z" fill="#EBEBEB"/><path d="m415.74 198.49 5.05 2.74-2.27 3.8-5.1-3 .1 5.61h-4.36v-5.66l-5.05 3.02-2.23-3.8 5.05-2.74-5.05-2.78 2.23-3.8 5.09 3.12v-5.66h4.36l-.1 5.66 5.1-3.06 2.27 3.8-5.09 2.75ZM436.78 198.49l5.05 2.74-2.27 3.8-5.1-3 .1 5.61h-4.36l.05-5.66-5.1 3.06-2.23-3.8 5.05-2.74-5.05-2.78 2.23-3.8 5.1 3.06-.05-5.66h4.36l-.1 5.66 5.1-3.06 2.27 3.8-5.05 2.77ZM457.82 198.49l5.06 2.74-2.27 3.8-5.1-3 .09 5.61h-4.36l.05-5.66-5.1 3.06-2.23-3.8 5.06-2.74-5.02-2.79 2.23-3.8 5.1 3.06-.05-5.66h4.36l-.09 5.66 5.1-3.06 2.27 3.8-5.1 2.78Z" fill="#E0E0E0"/><path d="M243.74 437.86v31.06H339.26v-31.06h-95.52Z" fill="#F5F5F5"/><path d="M239.73 429.17v8.69H342.6v-8.69H239.73Z" fill="#EBEBEB"/><path d="M291.16 468.92h48.1v-31.06h3.34v-8.69h-53.44v7.88l2 31.87Z" fill="#EBEBEB"/><path d="M276.47 442.86H257.1v4.68h19.37v-4.68Z" fill="#E0E0E0"/><path d="M279.48 453.39H254.6v9.87h24.88v-9.87Z" fill="#fff"/><path d="M258.43 398.15v31.06h95.53v-31.06h-95.53Z" fill="#F5F5F5"/><path d="M254.42 389.46v8.69H357.3v-8.69H254.42Z" fill="#EBEBEB"/><path d="M305.86 429.21h48.1v-31.06h3.34v-8.69h-53.44v7.89l2 31.86Z" fill="#EBEBEB"/><path d="M291.16 403.16h-19.37v4.68h19.37v-4.68Z" fill="#E0E0E0"/><path d="M294.18 413.68H269.3v9.87h24.88v-9.87Z" fill="#fff"/><path d="M464.07 469.16c0 .14-95.85.26-214.06.26-118.21 0-214.08-.12-214.08-.26s95.83-.26 214.08-.26c118.25 0 214.06.1 214.06.26Z" fill="#263238"/><path d="M398.79 245.72H249.77a6.38 6.38 0 0 0-6.38 6.38v77.14a6.38 6.38 0 0 0 6.38 6.38h149.02a6.38 6.38 0 0 0 6.38-6.38V252.1a6.38 6.38 0 0 0-6.38-6.38Z" fill="#fff"/><path d="M398.8 335.62s.43 0 1.25-.15a6.481 6.481 0 0 0 3.21-1.75 6.352 6.352 0 0 0 1.45-2.28 6.76 6.76 0 0 0 .36-1.53v-10c0-12.47-.05-30.49-.08-52.76v-12.97c0-1.49.15-3-.46-4.38a6.18 6.18 0 0 0-5.11-3.84c-.74-.05-1.56 0-2.34 0H249.79a6.115 6.115 0 0 0-5.14 2.78 6.055 6.055 0 0 0-1 2.84c-.05 1 0 2.1 0 3.14v74.83c.046.9.284 1.78.7 2.58a6.218 6.218 0 0 0 4.14 3.11c.889.143 1.791.19 2.69.14H326.69l52.76.08 14.34.05h5.01-5.01l-14.34.05-52.76.08H251.18a13.226 13.226 0 0 1-2.79-.15 6.646 6.646 0 0 1-4.46-3.36 6.554 6.554 0 0 1-.77-2.78v-77.78a6.648 6.648 0 0 1 1-3.08 6.812 6.812 0 0 1 2.4-2.22 6.919 6.919 0 0 1 3.18-.81h149.67a6.65 6.65 0 0 1 5.45 4.1c.292.725.448 1.498.46 2.28v15.22c0 22.27-.07 40.29-.09 52.76v10.01a6.76 6.76 0 0 1-.38 1.56 6.372 6.372 0 0 1-1.49 2.31 6.454 6.454 0 0 1-3.28 1.73c-.31.058-.625.091-.94.1l-.34.09Z" fill="#263238"/><path d="M299.76 277.49v1.12h-4.68v-6h4.56v1.12h-3.17V275h2.8v1.09h-2.8v1.4h3.29ZM306.42 272.57v6h-1.15l-3-3.67v3.67h-1.38v-6H302l3 3.67v-3.67h1.42ZM309.11 273.71h-1.94v-1.14h5.27v1.14h-1.94v4.9h-1.39v-4.9ZM317.87 277.49v1.12h-4.68v-6h4.57v1.12h-3.18V275h2.81v1.09h-2.81v1.4h3.29ZM322.84 278.61l-1.17-1.68h-1.28v1.68H319v-6h2.62c1.61 0 2.62.83 2.62 2.19a2 2 0 0 1-1.24 1.91l1.35 1.94-1.51-.04Zm-1.31-4.9h-1.14v2.1h1.14c.85 0 1.28-.39 1.28-1.05s-.43-1.05-1.28-1.05ZM327.4 275.59a3.325 3.325 0 0 1 2.204-2.936 3.326 3.326 0 0 1 3.566.876l-.9.83a1.988 1.988 0 0 0-1.52-.71 1.939 1.939 0 0 0 0 3.87 1.917 1.917 0 0 0 1.52-.71l.9.83a3.319 3.319 0 0 1-5.77-2.05ZM333.61 275.59a3.303 3.303 0 0 1 1.916-3.184 3.305 3.305 0 0 1 3.667.602 3.31 3.31 0 0 1-2.283 5.712 3.116 3.116 0 0 1-3.3-3.13Zm5.19 0a1.888 1.888 0 0 0-2.283-1.809 1.892 1.892 0 0 0-.653 3.423c.31.206.674.316 1.046.316a1.85 1.85 0 0 0 1.89-1.93ZM341.28 272.57H344c.796 0 1.559.316 2.121.879a2.996 2.996 0 0 1 0 4.242 2.996 2.996 0 0 1-2.121.879h-2.74l.02-6Zm2.67 4.89a1.867 1.867 0 0 0 1.87-1.87 1.867 1.867 0 0 0-1.87-1.87h-1.27v3.74h1.27ZM353.09 277.49v1.12h-4.68v-6H353v1.12h-3.2V275h2.81v1.09h-2.81v1.4h3.29Z" fill="#263238"/><path d="M276.82 288.26h-14.69a3.95 3.95 0 0 0-3.95 3.95v22.87a3.95 3.95 0 0 0 3.95 3.95h14.69a3.95 3.95 0 0 0 3.95-3.95v-22.87a3.95 3.95 0 0 0-3.95-3.95ZM305.03 288.26h-14.69a3.95 3.95 0 0 0-3.95 3.95v22.87a3.95 3.95 0 0 0 3.95 3.95h14.69a3.95 3.95 0 0 0 3.95-3.95v-22.87a3.95 3.95 0 0 0-3.95-3.95ZM333.24 288.26h-14.69a3.95 3.95 0 0 0-3.95 3.95v22.87a3.95 3.95 0 0 0 3.95 3.95h14.69a3.95 3.95 0 0 0 3.95-3.95v-22.87a3.95 3.95 0 0 0-3.95-3.95ZM361.44 288.26h-14.69a3.95 3.95 0 0 0-3.95 3.95v22.87a3.95 3.95 0 0 0 3.95 3.95h14.69a3.95 3.95 0 0 0 3.95-3.95v-22.87a3.95 3.95 0 0 0-3.95-3.95ZM389.65 288.26h-14.69a3.95 3.95 0 0 0-3.95 3.95v22.87a3.95 3.95 0 0 0 3.95 3.95h14.69a3.95 3.95 0 0 0 3.95-3.95v-22.87a3.95 3.95 0 0 0-3.95-3.95Z" fill="#EBEBEB"/><path d="M274.4 306c0 2.19-1.7 3.62-4 3.62-3.16 0-4.83-2.27-4.83-6 0-4.06 2.17-6.16 5.34-6.16a5.274 5.274 0 0 1 2.73.62l-.36.7a4.504 4.504 0 0 0-2.37-.55c-2.69 0-4.46 1.77-4.46 5.26 0 .482.033.963.1 1.44a3.77 3.77 0 0 1 3.83-2.47c2.4 0 4.02 1.4 4.02 3.54Zm-.88 0c0-1.71-1.23-2.83-3.26-2.83a2.993 2.993 0 0 0-2.291.709 3.003 3.003 0 0 0-1.039 2.161c0 1.41 1.18 2.81 3.43 2.81a2.855 2.855 0 0 0 2.219-.717 2.846 2.846 0 0 0 .941-2.133ZM302.3 306.23h-2.52v3.33h-.86v-3.33h-6.85v-.63l6.52-8.05h1l-6.4 7.91h5.77v-2.93h.84v2.93h2.52l-.02.77ZM331.39 311.27a52.782 52.782 0 0 1-10.47 0 52.782 52.782 0 0 1 10.47 0Z" fill="#FF725E"/><path d="M253.66 257.15a2.45 2.45 0 1 0 0-4.9 2.45 2.45 0 0 0 0 4.9ZM263.17 254.7a2.45 2.45 0 1 1-4.901 0 2.45 2.45 0 0 1 4.901 0ZM267.65 257.15a2.45 2.45 0 1 0 0-4.9 2.45 2.45 0 0 0 0 4.9ZM405.42 261.6c0 .14-36.23.26-80.9.26-44.67 0-80.9-.12-80.9-.26s36.21-.26 80.9-.26c44.69 0 80.9.11 80.9.26Z" fill="#263238"/><path d="M375.71 48.29H197.07a6.56 6.56 0 0 0-6.56 6.56V219.2a6.56 6.56 0 0 0 6.56 6.56h178.64a6.56 6.56 0 0 0 6.56-6.56V54.85a6.56 6.56 0 0 0-6.56-6.56Z" fill="#fff"/><path d="M375.71 225.76h.47a6.642 6.642 0 0 0 1.37-.26 6.523 6.523 0 0 0 4-3.47 7.933 7.933 0 0 0 .62-3.94V200.96c0-18.4-.05-45-.09-77.92V54.5a6.326 6.326 0 0 0-4.1-5.54 9.42 9.42 0 0 0-3.69-.4h-177.2a6.33 6.33 0 0 0-4.09 1.53 6.263 6.263 0 0 0-2.16 3.91 19.403 19.403 0 0 0-.07 2.3V219.82c.058.614.203 1.217.43 1.79a6.333 6.333 0 0 0 2.27 2.84 6.227 6.227 0 0 0 3.43 1.12H269.22l77.92.09H375.71h-7.39l-21.18.05-77.92.08h-72.33a6.77 6.77 0 0 1-6.11-4.24 7.1 7.1 0 0 1-.47-1.92c-.05-.68 0-1.3 0-1.95V56.25c-.027-.79-.001-1.583.08-2.37a6.672 6.672 0 0 1 2.28-4.18 6.88 6.88 0 0 1 4.42-1.7h177.14a9.76 9.76 0 0 1 3.85.44 6.78 6.78 0 0 1 4.39 5.93V122.94c0 32.9-.06 59.52-.08 77.92V217.99a8 8 0 0 1-.66 4 6.537 6.537 0 0 1-5.49 3.71l-.53.06Z" fill="#263238"/><path d="M205 60.59a3.322 3.322 0 0 1-3.971 3.255 3.318 3.318 0 0 1-1.186-6.02 3.319 3.319 0 0 1 1.847-.555 3.307 3.307 0 0 1 3.061 2.05c.166.403.25.834.249 1.27ZM211.35 63.9a3.31 3.31 0 1 0 0-6.62 3.31 3.31 0 0 0 0 6.62ZM221.03 63.9a3.31 3.31 0 1 0 0-6.62 3.31 3.31 0 0 0 0 6.62ZM382.27 70c0 .15-42.93.26-95.88.26-52.95 0-95.88-.11-95.88-.26 0-.15 42.92-.26 95.88-.26 52.96 0 95.88.11 95.88.26Z" fill="#263238"/><path d="M313.48 136.85s.07-.11.23-.31l.13-.17.13-.23a4.36 4.36 0 0 0 .29-.58c0-.11.1-.23.14-.36l.12-.42a3.57 3.57 0 0 0 .1-.47c0-.17.06-.34.07-.52a9.893 9.893 0 0 0-.12-2.49 21.992 21.992 0 0 0-2.28-6.43 50.602 50.602 0 0 0-4.91-7.63 78.095 78.095 0 0 0-7.31-8.22 89.73 89.73 0 0 0-9.61-8.19 73.62 73.62 0 0 0-5.67-3.8 54.625 54.625 0 0 0-6.31-3.31 29.725 29.725 0 0 0-7-2.2 12.342 12.342 0 0 0-3.74-.09 6.814 6.814 0 0 0-1.81.52 5.318 5.318 0 0 0-1.51 1.11 4.988 4.988 0 0 0-.94 1.63 6.909 6.909 0 0 0-.31 1.86 12.586 12.586 0 0 0 .51 3.71 29.66 29.66 0 0 0 3 6.72 53.878 53.878 0 0 0 4 5.89c1.42 1.84 2.91 3.58 4.42 5.21a89.046 89.046 0 0 0 9.24 8.61 77.43 77.43 0 0 0 9 6.33 50.647 50.647 0 0 0 8.14 4 22.548 22.548 0 0 0 6.65 1.54c.831.041 1.663-.016 2.48-.17.18 0 .34-.09.5-.13.156-.041.31-.091.46-.15l.4-.17.35-.18c.191-.104.371-.224.54-.36l.21-.15.16-.15c.18-.18.28-.26.28-.26l-.27.27-.16.15-.2.16a3.274 3.274 0 0 1-.55.36l-.33.22-.41.17a2.97 2.97 0 0 1-.45.15 4.273 4.273 0 0 1-.51.14 9.665 9.665 0 0 1-2.5.18 22.17 22.17 0 0 1-6.67-1.51 50.78 50.78 0 0 1-8.17-4 77.638 77.638 0 0 1-9-6.33 88 88 0 0 1-9.26-8.61c-1.51-1.63-3-3.37-4.43-5.21a55.8 55.8 0 0 1-4-5.91 29.728 29.728 0 0 1-3-6.75 12.494 12.494 0 0 1-.52-3.76 7.136 7.136 0 0 1 .32-1.89 5.389 5.389 0 0 1 1-1.69 5.142 5.142 0 0 1 1.56-1.14 7.127 7.127 0 0 1 1.85-.54c1.261-.16 2.538-.13 3.79.09a29.86 29.86 0 0 1 7.05 2.22 53.944 53.944 0 0 1 6.32 3.32c2 1.2 3.89 2.48 5.68 3.81a87.922 87.922 0 0 1 9.61 8.22 77.349 77.349 0 0 1 7.32 8.24 50.513 50.513 0 0 1 4.89 7.65 22.144 22.144 0 0 1 2.27 6.46c.139.829.173 1.672.1 2.51a3.81 3.81 0 0 1-.08.51 2.15 2.15 0 0 1-.1.47l-.12.43a2.972 2.972 0 0 1-.15.36c-.075.205-.176.4-.3.58a1.27 1.27 0 0 1-.13.23l-.13.17-.35.28Z" fill="#FF725E"/><path d="M322.55 114.93v-.59c0-.08 0-.16-.05-.26a3.206 3.206 0 0 0-.17-.63c0-.11-.08-.24-.13-.36l-.2-.4a2.189 2.189 0 0 0-.24-.41 3.558 3.558 0 0 0-.29-.43 9.343 9.343 0 0 0-1.74-1.78 22.204 22.204 0 0 0-6-3.28 50.264 50.264 0 0 0-8.74-2.43A77.581 77.581 0 0 0 294 103.1a90.253 90.253 0 0 0-12.63.27c-2.21.21-4.47.52-6.76.95-2.339.422-4.648 1-6.91 1.73a28.987 28.987 0 0 0-6.7 3 12.214 12.214 0 0 0-2.85 2.42 6.76 6.76 0 0 0-1 1.59 5.065 5.065 0 0 0-.4 1.84 5.33 5.33 0 0 0 .39 1.84 7.084 7.084 0 0 0 1 1.59c.826.949 1.79 1.768 2.86 2.43a29.6 29.6 0 0 0 6.7 3 56.66 56.66 0 0 0 6.91 1.73c2.29.43 4.55.73 6.76.94 4.198.393 8.419.486 12.63.28a80.596 80.596 0 0 0 11-1.2 50.24 50.24 0 0 0 8.74-2.43 22.774 22.774 0 0 0 6-3.28 9.616 9.616 0 0 0 1.74-1.78c.107-.14.204-.287.29-.44.095-.128.175-.265.24-.41l.2-.39c.05-.13.09-.25.13-.37a3.04 3.04 0 0 0 .17-.63c0-.09 0-.17.05-.25v-.6.86a3.114 3.114 0 0 1-.16.63c0 .12-.08.24-.13.37l-.19.4a3.792 3.792 0 0 1-.24.42 4.622 4.622 0 0 1-.29.43 9.39 9.39 0 0 1-1.74 1.8 22.127 22.127 0 0 1-6 3.31 50.036 50.036 0 0 1-8.75 2.46 79.093 79.093 0 0 1-11 1.28 88.746 88.746 0 0 1-12.64-.26c-2.22-.21-4.49-.51-6.78-.94a57.529 57.529 0 0 1-6.93-1.73 29.432 29.432 0 0 1-6.73-3 12.492 12.492 0 0 1-2.89-2.45 7.07 7.07 0 0 1-1-1.63 4.612 4.612 0 0 1 0-3.8 7.45 7.45 0 0 1 1-1.63A12.726 12.726 0 0 1 261 109a29.698 29.698 0 0 1 6.74-3 53.849 53.849 0 0 1 6.92-1.73 75.5 75.5 0 0 1 6.78-.94A88.97 88.97 0 0 1 294 103c3.693.167 7.369.598 11 1.29a49.746 49.746 0 0 1 8.75 2.45 22.127 22.127 0 0 1 6 3.31 9.695 9.695 0 0 1 1.74 1.8c.107.14.204.287.29.44.091.133.171.274.24.42l.19.39c.05.13.09.26.13.37.076.207.129.422.16.64v.47c.05.22.05.35.05.35Z" fill="#FF725E"/><path d="m310.53 87.66-.33-.21-.18-.12a1.695 1.695 0 0 0-.23-.11 3.117 3.117 0 0 0-.6-.25c-.12 0-.24-.09-.37-.12l-.43-.09a3.552 3.552 0 0 0-.47-.07 4.422 4.422 0 0 0-.52 0c-.835-.01-1.668.084-2.48.28a22.586 22.586 0 0 0-6.26 2.73 49.59 49.59 0 0 0-7.27 5.42 78.116 78.116 0 0 0-7.7 7.86 88.796 88.796 0 0 0-7.51 10.15 90.794 90.794 0 0 0-3.4 5.87 54.027 54.027 0 0 0-2.87 6.52 30.111 30.111 0 0 0-1.71 7.15 12.386 12.386 0 0 0 .17 3.74c.137.616.356 1.211.65 1.77.31.552.72 1.04 1.21 1.44.51.37 1.082.645 1.69.81a6.925 6.925 0 0 0 1.87.19c1.255-.07 2.493-.33 3.67-.77a29.682 29.682 0 0 0 6.5-3.44 54.51 54.51 0 0 0 5.6-4.4 76.38 76.38 0 0 0 4.89-4.77 89.734 89.734 0 0 0 7.95-9.81 78.022 78.022 0 0 0 5.7-9.41 50.118 50.118 0 0 0 3.44-8.39 22.385 22.385 0 0 0 1.07-6.75 9.298 9.298 0 0 0-.34-2.46c0-.18-.11-.34-.16-.5-.05-.16-.11-.3-.18-.44l-.19-.39c-.07-.12-.15-.23-.21-.33a2.932 2.932 0 0 0-.4-.52l-.16-.2-.16-.14-.28-.26.29.25.16.14c.062.059.119.122.17.19.151.16.285.334.4.52.07.11.15.21.22.33l.19.4c.077.14.141.288.19.44.05.16.12.32.16.5.231.803.352 1.634.36 2.47a22.095 22.095 0 0 1-1.05 6.77 50.996 50.996 0 0 1-3.42 8.42 78.058 78.058 0 0 1-5.7 9.43 87.833 87.833 0 0 1-7.95 9.83 71.83 71.83 0 0 1-4.9 4.79 55.084 55.084 0 0 1-5.61 4.41 29.52 29.52 0 0 1-6.53 3.46c-1.19.445-2.441.708-3.71.78a7.299 7.299 0 0 1-1.92-.19 5.44 5.44 0 0 1-1.74-.85 5.231 5.231 0 0 1-1.25-1.48 7.313 7.313 0 0 1-.67-1.81 12.65 12.65 0 0 1-.16-3.78 29.64 29.64 0 0 1 1.72-7.19 54.166 54.166 0 0 1 2.87-6.53c1.07-2.08 2.22-4.06 3.41-5.94a90.16 90.16 0 0 1 7.54-10.15 77.017 77.017 0 0 1 7.72-7.85 50.481 50.481 0 0 1 7.3-5.42 22.422 22.422 0 0 1 6.29-2.7 9.626 9.626 0 0 1 2.49-.28h.52c.162.012.322.035.48.07l.43.09.37.13c.209.065.41.152.6.26.079.03.156.067.23.11l.18.13.32.27ZM256.35 128.52a1.215 1.215 0 0 1 .262 1.329 1.224 1.224 0 0 1-1.804.546 1.222 1.222 0 0 1-.188-1.875 1.226 1.226 0 0 1 1.334-.266c.148.062.283.152.396.266ZM325.34 90.63a1.23 1.23 0 1 1-1.23-1.22 1.22 1.22 0 0 1 1.23 1.22ZM264.07 132.54a.31.31 0 1 1-.62 0 .31.31 0 0 1 .62 0ZM270.7 98.28a.31.31 0 1 1-.62 0 .31.31 0 0 1 .62 0ZM319.19 114.93a.31.31 0 1 1-.62-.001.31.31 0 0 1 .62.001ZM323.51 100.45a.31.31 0 1 1-.62-.001.31.31 0 0 1 .62.001Z" fill="#FF725E"/><path d="M302.57 121.76h-3.84v-20.91a8.93 8.93 0 0 0-17.86 0v20.91H277v-20.91a12.77 12.77 0 1 1 25.54 0l.03 20.91Z" fill="#FF725E"/><path opacity=".3" d="M302.57 121.76h-3.84v-20.91a8.93 8.93 0 0 0-17.86 0v20.91H277v-20.91a12.77 12.77 0 1 1 25.54 0l.03 20.91Z" fill="#000"/><path d="M304.76 112.46h-29.92a2.25 2.25 0 0 0-2.25 2.25v17.58a2.25 2.25 0 0 0 2.25 2.25h29.92a2.25 2.25 0 0 0 2.25-2.25v-17.58a2.25 2.25 0 0 0-2.25-2.25Z" fill="#FF725E"/><path opacity=".3" d="M292.68 120.63a2.882 2.882 0 0 0-4.61-2.325 2.882 2.882 0 0 0-.395 4.246c.362.397.828.684 1.345.829v4.3h1.56v-4.3a2.863 2.863 0 0 0 2.1-2.75Z" fill="#000"/><path d="M274.43 132.45c-.08 0-.15-3.68-.15-8.22 0-4.54.07-8.23.15-8.23.08 0 .14 3.68.14 8.23 0 4.55-.07 8.22-.14 8.22ZM287.55 124.31s-.14 0-.34-.19a3.486 3.486 0 0 1-.74-.75 4 4 0 0 1 1.43-6.05 3.41 3.41 0 0 1 1-.35c.129-.024.261-.024.39 0-.442.15-.873.33-1.29.54a4.002 4.002 0 0 0-1.37 5.76c.278.371.586.719.92 1.04Z" fill="#FAFAFA"/><path d="M340.9 153.47H234.93a9.32 9.32 0 0 0-9.32 9.32v1.14a9.32 9.32 0 0 0 9.32 9.32H340.9a9.32 9.32 0 0 0 9.32-9.32v-1.14a9.32 9.32 0 0 0-9.32-9.32ZM341.81 180.59H235.84a9.32 9.32 0 0 0-9.32 9.32v1.14a9.32 9.32 0 0 0 9.32 9.32h105.97a9.32 9.32 0 0 0 9.32-9.32v-1.14a9.32 9.32 0 0 0-9.32-9.32Z" fill="#F5F5F5"/><path d="M245.3 163.2v-2.86h1.19v2.82c0 1 .42 1.37 1.14 1.37s1.14-.4 1.14-1.37v-2.82h1.17v2.86a2.32 2.32 0 1 1-4.64 0ZM250.65 165.09l.37-.82a2.7 2.7 0 0 0 1.37.38c.53 0 .72-.14.72-.36 0-.64-2.37 0-2.37-1.55 0-.75.67-1.28 1.82-1.28a3.216 3.216 0 0 1 1.51.35l-.38.81a2.214 2.214 0 0 0-1.13-.29c-.51 0-.73.16-.73.36 0 .67 2.37 0 2.37 1.57 0 .73-.67 1.25-1.85 1.25a3.356 3.356 0 0 1-1.7-.42ZM258.74 163.81h-3a1.05 1.05 0 0 0 1.13.79 1.34 1.34 0 0 0 1-.38l.61.66a2.077 2.077 0 0 1-1.62.63 1.999 1.999 0 0 1-2.25-2 1.992 1.992 0 0 1 1.304-1.877 1.98 1.98 0 0 1 .796-.123 1.988 1.988 0 0 1 1.447.568 1.994 1.994 0 0 1 .603 1.432c0 .08-.02.2-.02.3Zm-3-.67h1.93a.996.996 0 0 0-.965-.738.997.997 0 0 0-.965.738ZM262 161.46v1.06h-.26a1 1 0 0 0-1 1.1v1.85h-1.14v-3.93h1.09v.46a1.576 1.576 0 0 1 1.31-.54ZM266.66 163.2v2.25h-1.14v-2.07c0-.64-.29-.93-.8-.93s-.94.34-.94 1.06v1.94h-1.14v-3.93h1.09v.48a1.75 1.75 0 0 1 1.3-.52 1.532 1.532 0 0 1 1.219.477 1.553 1.553 0 0 1 .411 1.243ZM271.17 163.21v2.24h-1.07V165a1.294 1.294 0 0 1-1.2.55c-.92 0-1.47-.51-1.47-1.19 0-.68.49-1.18 1.69-1.18h.88c0-.48-.29-.77-.91-.77a1.892 1.892 0 0 0-1.13.37l-.41-.8a3.003 3.003 0 0 1 1.7-.48c1.22-.04 1.92.5 1.92 1.71Zm-1.14 1v-.4h-.78c-.54 0-.7.2-.7.46s.24.48.64.48a.838.838 0 0 0 .81-.54h.03ZM278.84 163.2v2.25h-1.14v-2.07c0-.64-.28-.93-.74-.93-.46 0-.87.33-.87 1v2H275v-2.07c0-.64-.27-.93-.75-.93s-.86.33-.86 1v2h-1.19v-3.93h1.09v.48a1.585 1.585 0 0 1 1.23-.52 1.487 1.487 0 0 1 1.3.65 1.754 1.754 0 0 1 1.42-.65 1.512 1.512 0 0 1 1.207.482 1.515 1.515 0 0 1 .393 1.238ZM283.74 163.81h-3a.997.997 0 0 0 1.12.79 1.34 1.34 0 0 0 .539-.088c.172-.065.329-.164.461-.292l.6.66a2.057 2.057 0 0 1-1.62.63 2.002 2.002 0 0 1-2.068-1.175 2.005 2.005 0 0 1-.172-.825 1.992 1.992 0 0 1 1.304-1.877 1.98 1.98 0 0 1 .796-.123 1.999 1.999 0 0 1 2 2c.06.08.05.2.04.3Zm-3-.67h1.94a.939.939 0 0 0-1-.81.92.92 0 0 0-.93.81h-.01ZM291.28 163.45c0 1.31-.6 2.06-1.5 2.06a1 1 0 0 1-1-.64 1.384 1.384 0 0 1-1.25.64 1.862 1.862 0 0 1-1.189-3.095 1.862 1.862 0 0 1 1.189-.605 1.375 1.375 0 0 1 1.12.49v-.43h1v2.36c0 .35.15.47.35.47.2 0 .54-.39.54-1.23a2.491 2.491 0 0 0-2.72-2.51 2.65 2.65 0 1 0 0 5.3c.498-.001.989-.11 1.44-.32l.23.67a3.877 3.877 0 0 1-1.67.35 3.343 3.343 0 0 1-2.486-.912 3.35 3.35 0 0 1 2.486-5.778 3.204 3.204 0 0 1 2.425.833 3.205 3.205 0 0 1 1.035 2.347Zm-2.61.21a.905.905 0 0 0-.544-.93.898.898 0 0 0-.376-.07 1 1 0 1 0 0 2 .898.898 0 0 0 .92-1ZM298.73 163.2v2.25h-1.14v-2.07c0-.64-.28-.93-.74-.93-.46 0-.87.33-.87 1v2h-1.14v-2.07c0-.64-.27-.93-.75-.93s-.86.33-.86 1v2h-1.14v-3.93h1.09v.48a1.59 1.59 0 0 1 1.23-.52 1.487 1.487 0 0 1 1.3.65 1.726 1.726 0 0 1 1.41-.65 1.523 1.523 0 0 1 1.552 1.054c.068.215.088.442.058.666ZM303.23 163.21v2.24h-1.06V165a1.294 1.294 0 0 1-1.2.55c-.92 0-1.47-.51-1.47-1.19 0-.68.49-1.18 1.69-1.18h.9c0-.48-.29-.77-.9-.77a1.84 1.84 0 0 0-1.13.37l-.41-.8a3.002 3.002 0 0 1 1.69-.48c1.2-.04 1.89.5 1.89 1.71Zm-1.14 1v-.4h-.78c-.53 0-.7.2-.7.46s.24.48.64.48a.84.84 0 0 0 .84-.54ZM304.13 160.34a.648.648 0 0 1 .445-.61.663.663 0 0 1 .265-.03.643.643 0 0 1 .359 1.112.643.643 0 0 1-.964-.125.64.64 0 0 1-.105-.347Zm.14 1.18h1.13v3.93h-1.13v-3.93ZM306.47 160h1.14v5.42h-1.14V160ZM308.39 164.8a.71.71 0 1 1 1.422 0 .71.71 0 0 1-1.422 0ZM310.24 163.49a2.01 2.01 0 0 1 .651-1.486 2.02 2.02 0 0 1 .715-.42c.265-.089.546-.121.824-.094a1.792 1.792 0 0 1 1.76 1l-.88.47a1.055 1.055 0 0 0-.4-.35 1.056 1.056 0 0 0-1.028.052 1.053 1.053 0 0 0-.49.904 1.05 1.05 0 0 0 1.028 1.034 1.006 1.006 0 0 0 .89-.54l.88.48a1.804 1.804 0 0 1-1.76 1 1.995 1.995 0 0 1-1.558-.531 1.998 1.998 0 0 1-.632-1.519ZM314.51 163.49a2.158 2.158 0 0 1 1.217-2.106 2.164 2.164 0 0 1 2.405.361 2.164 2.164 0 0 1-.247 3.367 2.16 2.16 0 0 1-1.215.378 1.998 1.998 0 0 1-2.16-2Zm3.16 0a.995.995 0 0 0-.676-.857 1 1 0 1 0 .676.857ZM326.23 163.2v2.25h-1.14v-2.07c0-.64-.29-.93-.75-.93s-.87.33-.87 1v2h-1.14v-2.07c0-.64-.27-.93-.74-.93s-.86.33-.86 1v2h-1.14v-3.93h1.08v.48c.157-.171.349-.307.563-.397.214-.089.445-.131.677-.123a1.457 1.457 0 0 1 1.29.65 1.771 1.771 0 0 1 1.42-.65 1.523 1.523 0 0 1 1.552 1.054c.068.215.088.442.058.666ZM260.57 190.59l1.85 1-.83 1.39-1.87-1.1v2.06h-1.6v-2.08l-1.81 1.14-.82-1.39 1.86-1-1.86-1 .82-1.39 1.87 1.12v-2.07h1.6v2.07l1.87-1.12.83 1.39-1.91.98ZM268.28 190.59l1.85 1-.83 1.41-1.87-1.1v2.06h-1.59v-2.08L264 193l-.82-1.39 1.85-1-1.85-1 .82-1.39 1.87 1.12v-2.07h1.59v2.07l1.87-1.12.83 1.39-1.88.98ZM276 190.59l1.85 1L277 193l-1.86-1.1v2.06h-1.6v-2.08l-1.82 1.12-.81-1.39 1.85-1-1.85-1 .81-1.39 1.87 1.12v-2.07h1.6v2.07l1.86-1.12.84 1.39-1.89.98ZM283.69 190.59l1.85 1-.83 1.39-1.87-1.1v2.06h-1.6v-2.08l-1.81 1.14-.82-1.39 1.86-1-1.86-1 .82-1.39 1.87 1.12v-2.07h1.6v2.07l1.87-1.12.83 1.39-1.91.98ZM291.4 190.59l1.85 1-.83 1.39-1.87-1.1v2.06H289v-2.08l-1.86 1.14-.82-1.39 1.85-1-1.85-1 .82-1.39 1.86 1.08v-2.07h1.59v2.07l1.87-1.12.83 1.39-1.89 1.02ZM299.11 190.59l1.85 1-.83 1.39-1.87-1.1v2.06h-1.6v-2.08l-1.82 1.14-.81-1.39 1.85-1-1.85-1 .81-1.39 1.87 1.12v-2.07h1.6v2.07l1.87-1.12.83 1.39-1.9.98ZM306.81 190.59l1.85 1-.83 1.39-1.87-1.1v2.06h-1.6v-2.08l-1.81 1.14-.82-1.39 1.86-1-1.86-1 .82-1.39 1.87 1.12v-2.07H306v2.07l1.87-1.12.83 1.39-1.89.98ZM314.52 190.59l1.85 1-.83 1.39-1.87-1.1v2.06h-1.59v-2.08l-1.82 1.14-.82-1.39 1.85-1-1.85-1 .82-1.39 1.87 1.12v-2.07h1.59v2.07l1.87-1.12.83 1.39-1.9.98Z" fill="#263238"/><path d="M223.7 135.35h-77.9a4.05 4.05 0 0 0-4.05 4.06v35.48a4 4 0 0 0 4.05 4.05h32.68l6.94 8.91 5.79-8.91h32.49a4.058 4.058 0 0 0 2.864-1.186 4.062 4.062 0 0 0 1.186-2.864v-35.48a4.061 4.061 0 0 0-4.05-4.06Z" fill="#fff"/><path d="M223.7 135.35h.38c.38.033.753.117 1.11.25a3.999 3.999 0 0 1 1.54 1 4.061 4.061 0 0 1 1.07 2.4c.08 3.86.06 9.48.09 16.6V174a9.68 9.68 0 0 1-.08 1.76 4.295 4.295 0 0 1-.74 1.68 4.245 4.245 0 0 1-3.23 1.74h-32.68l.2-.1c-1.82 2.79-3.78 5.82-5.78 8.9l-.19.29-.22-.27-6.94-8.9.2.1h-33.14a4.337 4.337 0 0 1-3.71-3.34 7.626 7.626 0 0 1-.11-1.7v-34.75c0-.527.099-1.049.29-1.54a4.342 4.342 0 0 1 2-2.28 4.233 4.233 0 0 1 1.47-.44c.493-.025.987-.025 1.48 0H185.34l28 .08 7.61.05h2.68-2.68l-7.61.05-28 .08h-39.98a3.717 3.717 0 0 0-1.3.4 3.81 3.81 0 0 0-1.81 2c-.172.436-.26.901-.26 1.37v34.76a6.885 6.885 0 0 0 .09 1.59 3.803 3.803 0 0 0 1.171 1.983 3.801 3.801 0 0 0 2.099.947c.51.05 1.1 0 1.65 0h31.6l.08.1 6.94 8.9h-.41l5.79-8.9.07-.11h32.8a3.773 3.773 0 0 0 2.93-1.56c.338-.449.571-.969.68-1.52.077-.56.104-1.125.08-1.69v-18.4c0-7.1 0-12.72.05-16.59a3.995 3.995 0 0 0-1-2.25 4.04 4.04 0 0 0-1.49-1.05 5.006 5.006 0 0 0-1.42-.04Z" fill="#263238"/><path d="M170.16 145.37v1.31h-.85v-1.32l-1.44-2.36h.91l1 1.64 1-1.64h.84l-1.46 2.37ZM171.58 144.83a2.006 2.006 0 0 1 .292-1.135 2 2 0 1 1 1.708 3.045 1.91 1.91 0 0 1-2-1.91Zm3.18 0a1.167 1.167 0 0 0-.2-.642 1.16 1.16 0 1 0-.96 1.812 1.123 1.123 0 0 0 .833-.334 1.123 1.123 0 0 0 .327-.836ZM176.25 145.05V143h.86v2c0 .7.31 1 .82 1s.83-.29.83-1v-2h.85v2.07a1.68 1.68 0 1 1-3.36 0v-.02ZM182.82 146.68l-.71-1h-.79v1h-.86V143h1.6c1 0 1.61.51 1.61 1.34a1.197 1.197 0 0 1-.76 1.17l.83 1.19-.92-.02Zm-.8-3h-.7V145h.7c.52 0 .78-.25.78-.65s-.26-.68-.8-.68l.02.01ZM185.62 144.83a2.002 2.002 0 0 1 2.531-1.912c.395.108.747.336 1.009.652l-.55.51a1.186 1.186 0 0 0-.94-.44 1.191 1.191 0 0 0 0 2.37 1.18 1.18 0 0 0 .94-.43l.55.5a2.002 2.002 0 0 1-2.206.61 1.998 1.998 0 0 1-1.334-1.86ZM189.43 144.83a2.006 2.006 0 0 1 .292-1.135 2 2 0 1 1 1.708 3.045 1.91 1.91 0 0 1-2-1.91Zm3.18 0a1.158 1.158 0 0 0-1.398-1.115 1.159 1.159 0 0 0 .238 2.295 1.121 1.121 0 0 0 .837-.337 1.122 1.122 0 0 0 .323-.843ZM194.13 143h1.69c.259-.027.521.001.769.081a1.872 1.872 0 0 1 1.123 1.013 1.86 1.86 0 0 1-1.892 2.606h-1.69V143Zm1.64 3a1.147 1.147 0 0 0 1.15-1.15 1.149 1.149 0 0 0-1.15-1.15H195v2.3h.77ZM201.38 146v.69h-2.87V143h2.8v.68h-1.95v.81h1.72v.67h-1.72v.84h2.02Z" fill="#263238"/><path d="M216.1 150.57h-62.69a3.55 3.55 0 0 0-3.55 3.55v13.24a3.55 3.55 0 0 0 3.55 3.55h62.69a3.55 3.55 0 0 0 3.55-3.55v-13.24a3.55 3.55 0 0 0-3.55-3.55Z" fill="#F5F5F5"/><path d="M164 162a2.999 2.999 0 0 1-3.28 3c-2.58 0-3.95-1.86-3.95-4.94 0-3.34 1.77-5.05 4.38-5.05a4.378 4.378 0 0 1 2.23.5l-.29.58a3.685 3.685 0 0 0-1.94-.45c-2.21 0-3.66 1.45-3.66 4.31-.003.395.024.789.08 1.18a3.09 3.09 0 0 1 3.14-2c2.01-.07 3.29 1.08 3.29 2.87Zm-.72 0c0-1.41-1-2.32-2.67-2.32a2.489 2.489 0 0 0-1.871.588 2.477 2.477 0 0 0-.859 1.762c0 1.15 1 2.31 2.82 2.31a2.335 2.335 0 0 0 1.842-.574 2.333 2.333 0 0 0 .778-1.766h-.04ZM177.11 162.16h-2.06v2.73h-.71v-2.73h-5.61v-.52l5.35-6.6h.8l-5.25 6.48h4.73v-2.4h.69v2.4h2.06v.64ZM188.05 162.11c0 1.64-1.18 2.85-3.45 2.85a4.722 4.722 0 0 1-3.47-1.33l.36-.55a4.21 4.21 0 0 0 3.11 1.21c1.77 0 2.72-.84 2.72-2.18 0-1.34-.9-2.18-2.87-2.18h-.62v-.52l2.91-3.73h-5.25V155h6.18v.5l-3 3.79c2.33.09 3.38 1.22 3.38 2.82ZM200 155v.5l-4.23 9.35h-.79l4.19-9.21h-5.53v1.89h-.7V155H200ZM205 160c0-3.08 1.59-5 3.85-5s3.86 1.91 3.86 5-1.59 5-3.86 5c-2.27 0-3.85-2-3.85-5Zm7 0c0-2.74-1.28-4.33-3.14-4.33s-3.14 1.59-3.14 4.33 1.28 4.33 3.14 4.33S212 162.7 212 160Z" fill="#FF725E"/><path d="M419.4 417.52c13.09-5.56 28.25-16.49 35-29.9a74.62 74.62 0 0 0-35 29.9ZM422.19 396.71c13.09-5.55 28.25-16.48 35-29.89a74.51 74.51 0 0 0-35 29.89ZM426 376.48c13.1-5.56 28.25-16.49 35-29.89a74.541 74.541 0 0 0-35 29.89ZM430.72 355.3c12.35-7.3 26.12-20.3 31.28-34.48a77 77 0 0 0-31.25 34.48M435.8 339.09c9-11.77 17.39-29.29 17.28-44.47a82.702 82.702 0 0 0-17.28 44.47ZM433.28 346.8c-1.82-15.92-8-35.93-18.52-47.87a97.27 97.27 0 0 0 18.52 47.87ZM429.05 364.21c-3.2-16.41-11.3-36.71-23.24-48.22a101.007 101.007 0 0 0 23.24 48.22ZM424.19 385.44C421 369 412.88 348.73 401 337.22a101.007 101.007 0 0 0 23.24 48.22M420.29 411.51c-3.21-16.41-11.31-36.71-23.24-48.22a101.007 101.007 0 0 0 23.24 48.22Z" fill="#263238"/><path d="M436.41 336a.706.706 0 0 0-.1.25c-.07.19-.15.43-.25.73-.22.69-.53 1.64-.91 2.84-.79 2.47-1.85 6.06-3.1 10.52s-2.63 9.79-4.05 15.74c-1.42 5.95-2.82 12.54-4.14 19.48-1.32 6.94-2.35 13.6-3.22 19.66-.87 6.06-1.49 11.54-1.94 16.14-.45 4.6-.77 8.34-.93 10.93-.08 1.26-.14 2.25-.19 3v.78a.872.872 0 0 0 0 .26.822.822 0 0 0 .05-.26c0-.2 0-.46.08-.77.07-.72.17-1.71.29-3 .22-2.57.59-6.3 1.09-10.9.5-4.6 1.19-10.06 2.05-16.11.86-6.05 2-12.69 3.26-19.63 1.26-6.94 2.72-13.51 4.09-19.47 1.37-5.96 2.73-11.29 3.94-15.76 1.21-4.47 2.21-8.07 2.94-10.55l.82-2.87c.08-.3.14-.55.2-.75a.986.986 0 0 0 .02-.26Z" fill="#263238"/><path d="M413 426.18c5.55-11.62 9.59-28 6.87-40.73a72.225 72.225 0 0 0-6.87 40.73ZM403.79 411.13c5.55-11.63 9.59-28 6.86-40.73a72.136 72.136 0 0 0-6.86 40.73ZM395.51 395.82c5.55-11.63 9.59-28 6.86-40.73a72.136 72.136 0 0 0-6.86 40.73ZM387.35 379.31c4.13-12.3 6.2-29.08 2-41.35a72.714 72.714 0 0 0-2 41.35ZM382 365.79c-.41-13.09-4.26-29.49-12.39-39.16A71.003 71.003 0 0 0 382 365.79ZM384.49 372.28c-9.63-9.08-24.27-18.11-37.43-19.29a72.493 72.493 0 0 0 37.43 19.29ZM391 386.06c-10.79-8.56-26.83-16.58-40.69-16.61A75.583 75.583 0 0 0 391 386.06ZM399.1 402.67c-10.79-8.55-26.82-16.58-40.68-16.61a75.583 75.583 0 0 0 40.68 16.61ZM410.41 421.79c-10.79-8.56-26.83-16.58-40.69-16.62a75.516 75.516 0 0 0 40.69 16.62Z" fill="#455A64"/><path d="M380.78 363.42s0 .07.06.21l.22.62.9 2.35c.79 2 2 5 3.53 8.58 3.08 7.19 7.65 17 13.32 27.54 2.84 5.25 5.69 10.19 8.35 14.62 2.66 4.43 5.19 8.37 7.36 11.63 2.17 3.26 4 5.87 5.24 7.65l1.48 2 .39.52c.09.12.14.18.15.17a1.689 1.689 0 0 0-.11-.2l-.35-.55c-.35-.51-.81-1.21-1.4-2.09-1.24-1.81-3-4.45-5.11-7.73-2.11-3.28-4.6-7.24-7.26-11.67s-5.47-9.38-8.31-14.63C393.57 392 389 382.2 385.81 375a454.67 454.67 0 0 1-3.67-8.51l-1-2.32-.27-.6a.877.877 0 0 0-.09-.15Z" fill="#263238"/><path d="M386.58 427.59h55.16v10.63h-5.67l-4.77 30.32h-34.1l-4.91-30.32h-5.71v-10.63Z" fill="#FF725E"/><path d="M386.58 438c0-.14 12.26-.26 27.38-.26s27.38.12 27.38.26-12.25.25-27.38.25c-15.13 0-27.38-.11-27.38-.25ZM70.61 468.56h-8.95l-3.32-40.31h10.54l1.73 40.31ZM148.21 468.56h8.95l3.32-40.31h-10.54l-1.73 40.31Z" fill="#263238"/><path d="m166.63 433.36-115.24 2.7-3.5-74.43a12.77 12.77 0 0 1 12.76-13.38h98.19a12.774 12.774 0 0 1 9.343 4.06 12.769 12.769 0 0 1 2.701 4.446c.587 1.651.827 3.406.706 5.154l-4.96 71.45Z" fill="#FF725E"/><path d="M172.54 361.38h-1.27l-3.63.06h-13.36c-11.28 0-26.86-.1-44.06.3-17.21.57-32.81.47-44.08.3-5.64-.09-10.21-.2-13.36-.3l-3.63-.12h-.94a1.224 1.224 0 0 1-.32 0h4.89l13.36.13c11.28.08 26.86.12 44.07-.46 17.21-.39 32.79-.21 44.07-.13l13.36.11 3.63.05h.95l.32.06ZM89.92 349.41a26.676 26.676 0 0 0-7.48 2.25 26.311 26.311 0 0 0-6.21 4.74 6.903 6.903 0 0 1 1.43-1.86 17.29 17.29 0 0 1 9.92-5.06 6.668 6.668 0 0 1 2.34-.07Z" fill="#263238"/><path d="m137.32 214.08 14.08 25.73 20.6-11.54 10 3.31s-25.24 27.42-29.35 28.85c-4.11 1.43-11.89 1.66-16.33-3.91-4-5.07-15.84-31.67-15.84-31.67l16.84-10.77Z" fill="#FFBE9D"/><path d="M195.31 197.28a1.667 1.667 0 0 0-1.52-.6L184 198a3.002 3.002 0 0 0-2.09 1.36l-20.41 31.35 1.56.87 10.86-.34 21.7-33.57-.31-.39Z" fill="#263238"/><path d="M188.36 201.35a.7.7 0 1 0 .07-.84.622.622 0 0 0-.07.84Z" fill="#fff"/><path d="M195.62 197.67c-.622.174-1.258.298-1.9.37l-5.2.81-3.59.52a2.046 2.046 0 0 0-1.52.9l-1.16 1.8c-1.61 2.47-3.36 5.18-5.2 8-3.71 5.68-7.09 10.81-9.57 14.51l-2.95 4.42c-.343.549-.727 1.07-1.15 1.56.282-.589.616-1.152 1-1.68l2.8-4.46c2.39-3.76 5.71-8.92 9.42-14.6 1.86-2.83 3.63-5.53 5.24-8 .41-.61.81-1.21 1.19-1.8a2.54 2.54 0 0 1 1.87-1.08l3.61-.46 5.23-.62a11.98 11.98 0 0 1 1.88-.19Z" fill="#455A64"/><path d="M184.73 208.86s-.87-.15-1.35 2.24c-.48 2.39-2 9.25-2 9.25l-4.58-2.43-5.74.75s-1.25 1.15-.33 1.78c.92.63 4.54 1.27 4.54 1.27l2.67 3.85-7.67-3.7s-2.56.67-1.81 2.23 5.92 6.45 5.92 6.45l-3.84-.29-4.54-2.78s-1.4.07-.88 1.26c.52 1.19 5.28 5.51 5.28 5.51l5.76 2.8s3.15-.25 3.45-1.18c.204-.732.331-1.482.38-2.24 0 0 1.67-.45 2-1.26a4.998 4.998 0 0 0 .11-2.09s2.62.46 2.95-1c.229-1.82.155-3.665-.22-5.46-.26-1.13 1.12-11.58 1-11.89-.12-.31.55-3.76-1.1-3.07Z" fill="#FFBE9D"/><path d="M179.76 235.89c-.455.273-.97.431-1.5.46a10.13 10.13 0 0 1-7.27-1.73c-.79-.57-1.18-1-1.13-1.09.05-.09 1.93 1.43 4.73 2.08 2.8.65 5.14.1 5.17.28ZM178.4 233.82c-.09.13-1.12-.4-2.21-1.3-1.09-.9-1.81-1.79-1.7-1.9.11-.11 1 .57 2.08 1.45s1.92 1.61 1.83 1.75ZM181.43 228.85c-.09.13-1.11-.39-2.13-1.34-1.02-.95-1.62-1.91-1.5-2 .12-.09.92.67 1.9 1.58.98.91 1.82 1.62 1.73 1.76ZM184.62 224.84c-.16.07-.74-1-1.65-2.19-.91-1.19-1.8-2-1.7-2.16.1-.16 1.2.54 2.16 1.8a4.519 4.519 0 0 1 1.19 2.55Z" fill="#EB996E"/><path d="M188.51 410.3a2.008 2.008 0 0 0 0-.95 6.325 6.325 0 0 0-1-2.41 3.889 3.889 0 0 0-.57-.69 1.078 1.078 0 0 0-1.08-.24.753.753 0 0 0-.47.47c-.07.208-.07.432 0 .64.137.348.304.682.5 1 .37.63.68 1.25 1.16 2a1.348 1.348 0 0 0 1.27.57c.447-.08.869-.265 1.23-.54a10.712 10.712 0 0 0 1.8-1.67c.257-.296.498-.607.72-.93.243-.316.423-.676.53-1.06a1.003 1.003 0 0 0-.54-1.16 1.22 1.22 0 0 0-.609-.02 1.217 1.217 0 0 0-.541.28 7 7 0 0 0-1.2 1.36 9.2 9.2 0 0 0-1.19 2.3c-.132.289-.2.603-.2.92a18.228 18.228 0 0 1 1.71-3c.339-.45.728-.859 1.16-1.22.23-.16.51-.27.68-.18a.497.497 0 0 1 .22.59 2.742 2.742 0 0 1-.47.86c-.21.3-.44.59-.68.88a11.331 11.331 0 0 1-1.72 1.57 2.271 2.271 0 0 1-1 .44.81.81 0 0 1-.437-.069.808.808 0 0 1-.333-.291c-.39-.57-.77-1.28-1.14-1.87-.17-.31-.38-.61-.48-.86-.1-.25 0-.45.15-.53.43-.17.86.32 1.15.73a9 9 0 0 1 1.38 3.08Z" fill="#263238"/><path d="m163.94 411.14-12.2 26.45-19.69-9.1 12.62-32.73 19.27 15.38Z" fill="#FFBE9D"/><path d="m154 435.82-7.13 13.6s18.25 18.87 16.54 23.09l-42.9-20.57 11.78-27.27L154 435.82Z" fill="#455A64"/><path d="M134.54 441.2a1.997 1.997 0 0 0-2.17 1.42 1.86 1.86 0 0 0 1.39 2.16 2.048 2.048 0 0 0 2.29-1.51 1.937 1.937 0 0 0-1.7-2.09" fill="#E0E0E0"/><path opacity=".6" d="m120.55 451.94 1.78-3.42 40.47 21s1.51 1.74.65 3l-42.9-20.58Z" fill="#fff"/><path d="M147.71 449.53c-.1.21-1.2-.2-2.55 0-1.35.2-2.33.8-2.48.62-.15-.18.74-1.23 2.38-1.42 1.64-.19 2.79.63 2.65.8ZM151.32 453.55c0 .23-1.13.15-2.26.69-1.13.54-1.79 1.39-2 1.28-.21-.11.23-1.36 1.66-2 1.43-.64 2.69-.17 2.6.03ZM151.29 460.16c-.21 0 0-1.23 1.09-2.12 1.09-.89 2.29-.88 2.29-.66 0 .22-.89.54-1.78 1.28s-1.38 1.58-1.6 1.5ZM149.76 444.3c-.18.15-1-.6-2.22-1.09-1.22-.49-2.33-.56-2.35-.79-.02-.23 1.22-.55 2.65 0s2.1 1.76 1.92 1.88ZM158.06 432.29l32.17-80.49s-.73-13.74-3.26-18.07-79.15-29.64-79.15-29.64-19.51-4.7-32.53 0-22.77 21-21 30c1.77 9 9.43 15.67 9.43 15.67l56.35 1.68 30.71 11.2-20.68 59.27 27.96 10.38Z" fill="#263238"/><path d="m186.67 377.29.73 29.11-21.69.54-3.12-34.94 24.08 5.29Z" fill="#FFBE9D"/><path d="m188.69 403.8-.4 15.35s24.7 8.87 25 13.42l-47.57.48-1.47-29.67 24.44.42Z" fill="#455A64"/><path d="M173.56 417.24a1.946 1.946 0 0 0-1.087.862 1.947 1.947 0 0 0-.233 1.368 1.868 1.868 0 0 0 2.2 1.33 2.051 2.051 0 0 0 1.38-2.37 1.929 1.929 0 0 0-2.44-1.13" fill="#E0E0E0"/><path opacity=".6" d="m165.75 433.05.09-3.86 45.58 1s2.12.9 1.9 2.4l-47.57.46Z" fill="#fff"/><path d="M189.06 418.9c0 .23-1.17.35-2.3 1.11-1.13.76-1.74 1.74-1.95 1.65-.21-.09.12-1.44 1.51-2.33 1.39-.89 2.79-.64 2.74-.43ZM194.07 420.91c.06.23-.95.63-1.73 1.62-.78.99-1 2-1.22 2-.22 0-.4-1.32.6-2.54s2.34-1.3 2.35-1.08ZM197 426.86c-.21.05-.54-1.11 0-2.39s1.67-1.79 1.77-1.6c.1.19-.57.88-1 1.93-.43 1.05-.58 2.03-.77 2.06ZM188.58 413.3c-.09.21-1.16-.1-2.47 0-1.31.1-2.33.53-2.46.33-.13-.2.85-1 2.4-1.13 1.55-.13 2.65.61 2.53.8ZM174 296.45s13-1 14.44 13.06c1.44 14.06 2.86 79.88 2.86 79.88l-30.3 2.53-4.7-67.23-48.43-20.6s57.46-9.44 66.13-7.64Z" fill="#263238"/><path d="M120.46 277.43s7.88 22.11 6.38 24.57c-1.5 2.46-21.77 12.6-21.77 12.6l-50.74 19.49s-5.21-8.29-5.21-21 17.65-35.64 17.65-35.64l53.69-.02Z" fill="#263238"/><path d="M105.42 303c.075.052.156.095.24.13l.72.33 2.81 1.25 10.55 4.6 36.41 15.67-.17-.23c.46 6.64 1 13.81 1.47 21.23 1.24 17.35 2.38 33.34 3.28 46v.23h.23l22.12-1.94 6.09-.57 1.59-.16.54-.08a3.367 3.367 0 0 0-.55 0l-1.59.1-6.1.45-22.14 1.74.25.21c-.87-12.65-2-28.65-3.16-46-.52-7.42-1-14.59-1.5-21.23v-.16l-.15-.07-36.49-15.5-10.61-4.44-2.84-1.17-.74-.29a1.86 1.86 0 0 0-.26-.1ZM65.07 305.17a7.003 7.003 0 0 0 1.43-.38l3.82-1.24a84.197 84.197 0 0 1 12.78-3.23c4.34-.708 8.77-.651 13.09.17 3.3.69 5.2 1.63 5.24 1.52a5.877 5.877 0 0 0-1.32-.67 23.715 23.715 0 0 0-3.83-1.24 35.36 35.36 0 0 0-13.28-.34 71.928 71.928 0 0 0-12.83 3.41c-1.6.57-2.88 1.06-3.77 1.41-.459.16-.904.357-1.33.59Z" fill="#455A64"/><path d="M72.24 293.52a36.54 36.54 0 0 1 4.44 0c1.37.09 3 .3 4.8.51 1.8.21 3.79.46 5.85.85a27 27 0 0 1 9.94 3.69 32.421 32.421 0 0 1 3.45 2.77 4.132 4.132 0 0 0-.74-.95 15.271 15.271 0 0 0-2.49-2.16 25.492 25.492 0 0 0-10.06-3.91c-2.08-.39-4.08-.62-5.89-.81-1.81-.19-3.45-.35-4.84-.39a18.927 18.927 0 0 0-3.28.14c-.404.03-.801.117-1.18.26Z" fill="#455A64"/><path d="M94.65 115.88c-5.83-1-11 1.25-15.89 4.54a30.1 30.1 0 0 0-11.84 32.13 23.157 23.157 0 0 0 11.4 14.18c7.59 3.85 17.3 2.51 24.1-2.63 6.8-5.14 10.67-13.63 11-22.14a28.219 28.219 0 0 0-4.42-16.73 21.429 21.429 0 0 0-14.32-9.35" fill="#263238"/><path d="M78.05 135.73c.86-2.24.52-4.73.86-7.1.75-5.21 5-9.39 9.8-11.42 4.52-1.89 10-1.48 15.48.28a20.784 20.784 0 0 1 9.73 6.34 16.323 16.323 0 0 1 3 14.7l-26.66-3.88c-2.5 2.06-5.06 4.17-8.09 5.32a5.547 5.547 0 0 1-2.78.44 2.477 2.477 0 0 1-2.07-1.71c-.24-1.01.36-2 .73-2.97Z" fill="#263238"/><path d="m104.76 124.85-23.28 4.94a4.349 4.349 0 0 0-4.06 4.21l.28 50.39a15.71 15.71 0 0 0 3.28 9.5l2.22 2.86c5.07 6.53 15.32 5.87 19.19-1.43a5.48 5.48 0 0 0 .54-1.32c.07-.45.19-.75.21-1.13l.45-4.92c.22-4.48.26-9 .26-9s9.53-1.2 12-13.48c1.21-6.1 1.29-16.19 1.09-24.44-.21-7.39-4.76-16.67-12.18-16.18Z" fill="#FFBE9D"/><path d="M113.37 150.53a1.582 1.582 0 0 1-1.59 1.53 1.516 1.516 0 0 1-1.58-1.49 1.598 1.598 0 0 1 1.59-1.54 1.527 1.527 0 0 1 1.107.416 1.522 1.522 0 0 1 .473 1.084ZM114.53 146.22c-.21.2-1.37-.73-3.08-.79-1.71-.06-3 .74-3.16.52-.16-.22.12-.46.68-.83a4.32 4.32 0 0 1 2.55-.68 4.15 4.15 0 0 1 2.43.89c.51.43.68.81.58.89ZM98.09 150.14a1.58 1.58 0 0 1-1.59 1.54 1.511 1.511 0 0 1-1.57-1.49 1.578 1.578 0 0 1 1.58-1.54 1.519 1.519 0 0 1 1.58 1.49ZM98.34 145.81c-.21.2-1.37-.74-3.08-.8-1.71-.06-3 .74-3.16.53-.16-.21.12-.46.69-.84a4.407 4.407 0 0 1 2.54-.68 4.225 4.225 0 0 1 2.44.9c.5.42.67.8.57.89ZM103.45 158.77a12.453 12.453 0 0 1 2.79-.39c.44 0 .85-.1.94-.39.052-.448-.032-.9-.24-1.3-.37-1.07-.76-2.19-1.16-3.37-1.61-4.79-2.75-8.72-2.56-8.78.19-.06 1.66 3.77 3.26 8.56.38 1.18.75 2.3 1.1 3.38.257.536.314 1.146.16 1.72a1.109 1.109 0 0 1-.74.61 3.4 3.4 0 0 1-.74.07c-.937.088-1.882.051-2.81-.11Z" fill="#263238"/><path d="M103.85 179a31.386 31.386 0 0 1-16.37-5.05s3.82 8.71 16.23 8l.14-2.95ZM102.57 162.85a3.054 3.054 0 0 0-2.71-1.24 2.796 2.796 0 0 0-2 1 1.778 1.778 0 0 0-.22 2 2.072 2.072 0 0 0 2.21.65 6.34 6.34 0 0 0 2.23-1.22c.2-.125.373-.288.51-.48a.578.578 0 0 0 0-.64" fill="#EB996E"/><path d="M98.39 159.76c.28 0 .21 1.84 1.74 3.22 1.53 1.38 3.51 1.25 3.52 1.51 0 .11-.46.34-1.29.33a4.61 4.61 0 0 1-2.94-1.16 4 4 0 0 1-1.34-2.66c-.08-.81.18-1.26.31-1.24ZM98.24 140.75c-.18.46-1.88.17-3.89.33-2.01.16-3.64.65-3.89.22-.11-.2.18-.63.85-1.05a6.454 6.454 0 0 1 2.92-.89 6.379 6.379 0 0 1 3 .47c.77.32 1.09.7 1.01.92ZM114.32 138.75c-.31.38-1.47-.07-2.88-.15-1.41-.08-2.62.16-2.88-.25-.12-.2.09-.58.62-.93a4 4 0 0 1 2.38-.54 4 4 0 0 1 2.27.86c.48.42.63.83.49 1.01Z" fill="#263238"/><path d="M73.78 132.13c2.42-7.09 13-16.75 20.42-16.08l11.8 7.39a11.495 11.495 0 0 1-8 8.65c-2.13.6-4.67.73-6 2.52s-.62 4.54-1.85 6.42c-1.71 2.62-6.22 2.4-7.52 5.24-.56 1.24-.31 2.74-.9 4-.78 1.64-5 3.65-6.73 3.07-1.73-.58-1.67-3.53-2.2-5.09a8.1 8.1 0 0 1-.14-5.48c.86-3.51-.03-7.26 1.12-10.64Z" fill="#263238"/><path d="M80.12 154.87c0-.92-1-3.13-1.85-3.31-2.41-.47-6.79-.44-7.07 5.72-.38 8.42 8.15 7.06 8.18 6.82.03-.24.62-6.05.74-9.23Z" fill="#FFBE9D"/><path d="M77 160.8s-.15.09-.41.19c-.35.141-.74.141-1.09 0-.88-.37-1.56-1.82-1.54-3.33.017-.725.19-1.439.51-2.09a1.705 1.705 0 0 1 1.16-1.07.726.726 0 0 1 .84.44c.1.24 0 .41.09.42.09.01.18-.13.13-.48a.88.88 0 0 0-.3-.54 1.087 1.087 0 0 0-.379-.211 1.087 1.087 0 0 0-.43-.049 2.08 2.08 0 0 0-1.59 1.24 5 5 0 0 0-.61 2.32c0 1.7.77 3.33 2 3.74a1.597 1.597 0 0 0 1.35-.16c.19-.22.27-.41.27-.42Z" fill="#EB996E"/><path d="M72 130c0-2.64-3.26-4.36-5.83-5a11.004 11.004 0 0 0-7.59 1.45c-1.35.74-2.71 1.8-3 3.31-.29 1.51 1.15 3.31 2.59 2.77a5 5 0 1 0 4.83 8.53 11.141 11.141 0 0 1-4.38 6A12.508 12.508 0 0 0 72 130Z" fill="#263238"/><path d="M66.14 143.34a7.503 7.503 0 0 1-.32-2.53 18.54 18.54 0 0 1 3.88-11.5 7.22 7.22 0 0 1 1.78-1.82 27.835 27.835 0 0 0-4.16 7.42c-1.55 4.5-.99 8.44-1.18 8.43Z" fill="#FF725E"/><path d="M103.54 120.9c.77 3.43 6 7.82 8.27 10.49 4.36 5.09 5.22 6.78 5.18 18.17 2.06-3.93 3.64-7.79 3.48-12.22a18.381 18.381 0 0 0-4.88-12.08 14.285 14.285 0 0 0-12-4.36M139.25 214.58s-9.08-15.13-11.6-18.19a20.188 20.188 0 0 0-7.43-5.45 15.587 15.587 0 0 0-3.53-1.05L103.63 187s0 8.91-9.35 9.46c-9.35.55-17.19-12.46-17.19-12.46S62 186.34 58.4 188.2c-3.6 1.86-9.28 4.21-12.4 19.8l-2.19 15.28 26 2.4 2.49 38.64 12.89 9s35.75 9.29 38 9.9c2.25.61 3-57.52 3-57.52s9.26-5.91 13.06-11.12Z" fill="#263238"/><path d="M122.13 208.08c.211.353.382.729.51 1.12.29.73.67 1.8 1.09 3.14a61.124 61.124 0 0 1 2.66 21.72c-.08 1.4-.19 2.53-.31 3.31a5.62 5.62 0 0 1-.21 1.2 5.186 5.186 0 0 1 0-1.22c.05-.78.11-1.91.14-3.31a75.18 75.18 0 0 0-.5-10.9 74.37 74.37 0 0 0-2.14-10.69c-.37-1.35-.7-2.44-.94-3.18a5.88 5.88 0 0 1-.3-1.19Z" fill="#455A64"/><path d="m121 271.37-49-10.66-2.26-35-21.77-2s.81 23.92 1.64 31c1.21 10.23 7.25 24.19 10.79 27 3.54 2.81 62.75 1.53 62.75 1.53L121 271.37Z" fill="#FFBE9D"/><path d="M148.81 277.71a1.88 1.88 0 0 1-1.82 1.06 1.983 1.983 0 0 1-.47-.09c-1.09-.35-1-2.56-1-2.56l-5.18-.84s-6.75 4.35-9.15 7.23c-2.4 2.88-8.52.55-8.52.55L120.55 272l9.55-8.63s-.58.51.08-1.1c.66-1.61 3.65-1 3.65-1 .47-.8 2.43-1.08 2.43-1.08l8.38 1a5.735 5.735 0 0 1 4.19 2.64l3.55 5.61s1.87 4 1.57 5a1.683 1.683 0 0 1-2 1.1s-.41 2.66-1.11 2.75a5.788 5.788 0 0 1-2.07-.5l.04-.08Z" fill="#FFBE9D"/><path d="M131 269.77c0 .09 1.12 0 2.91.06 2.324.112 4.623.543 6.83 1.28 1.215.408 2.396.913 3.53 1.51 1 .57 2.06 1 2.39 1.77a1 1 0 0 1-.09 1 1.392 1.392 0 0 1-.63.53c-.238.083-.489.12-.74.11 0 0 .26.23.8.09.326-.089.612-.286.81-.56a1.338 1.338 0 0 0 .2-1.31 2.738 2.738 0 0 0-1-1.18c-.46-.29-.94-.6-1.47-.89a22.5 22.5 0 0 0-3.59-1.58 21.84 21.84 0 0 0-7-1.15 9.47 9.47 0 0 0-2.95.32Z" fill="#EB996E"/><path d="M130.4 275.11c0 .16 3.42 0 7.61.26s7.55.76 7.58.6a8.264 8.264 0 0 0-2.18-.53 48.818 48.818 0 0 0-10.78-.6 8.188 8.188 0 0 0-2.23.27ZM148.76 277.5c.074-.291.111-.59.11-.89.051-.819.051-1.641 0-2.46a10.042 10.042 0 0 0-.23-1.7 5.096 5.096 0 0 0-.82-1.82 11.507 11.507 0 0 0-3.14-3.21 15.788 15.788 0 0 0-4-2 14.734 14.734 0 0 0-3.62-.55h-2.44c-.303-.02-.607.01-.9.09 1.1.157 2.209.251 3.32.28 1.187.079 2.361.294 3.5.64a16.85 16.85 0 0 1 3.85 2 11.702 11.702 0 0 1 3 3.06 6.384 6.384 0 0 1 1.09 3.28c.22 1.99.17 3.28.28 3.28Z" fill="#EB996E"/><path d="M136.67 262.3c0 .08 1.25.12 3.25.35 2 .23 5 .43 6.77 3.09a28.36 28.36 0 0 1 4.22 6.57c.363 1.02.631 2.071.8 3.14a2.26 2.26 0 0 0 0-.89 8.687 8.687 0 0 0-.49-2.38 24.61 24.61 0 0 0-4.17-6.77 9.007 9.007 0 0 0-1.62-1.65 5.677 5.677 0 0 0-2-.92 17.544 17.544 0 0 0-3.55-.57 13.57 13.57 0 0 0-3.21.03Z" fill="#EB996E"/><path d="M133 280.73a3.68 3.68 0 0 0 .5-.38l1.4-1.13a57.47 57.47 0 0 1 5.51-3.79h-.12l5.18.88-.18-.22c-.017.426.017.852.1 1.27.068.466.273.901.59 1.25.19.172.427.283.68.32.241.045.489.045.73 0 .504-.074.963-.33 1.29-.72.088-.091.165-.192.23-.3l.05-.09-.3.11.16.06a7.609 7.609 0 0 0 1.38.42c.13.011.26.011.39 0 .165.01.33-.021.48-.09a1.56 1.56 0 0 0 .5-.69c.106-.229.193-.467.26-.71.141-.483.251-.974.33-1.47l-.3.21a2.002 2.002 0 0 0 1.93-.66c.231-.282.358-.635.36-1a5.312 5.312 0 0 0-.18-1 29.776 29.776 0 0 0-1.43-3.73l-1.89-3-1.2-1.89a9.837 9.837 0 0 0-1.31-1.84 5.626 5.626 0 0 0-1.88-1.25 7.158 7.158 0 0 0-2.14-.44l-7.89-.89h-.06c-.475.076-.94.2-1.39.37-.48.144-.901.438-1.2.84l.29-.09a2.873 2.873 0 0 0-2.69.15 3.359 3.359 0 0 0-1.33 2.12l.06-.11-6.58 5.92-1.77 1.63a3.848 3.848 0 0 0-.59.6 4.87 4.87 0 0 0 .66-.52l1.85-1.55 6.69-5.78h.05v-.07a3 3 0 0 1 1.17-1.85 2.474 2.474 0 0 1 2.27-.09l.18.07.11-.16c.261-.31.61-.533 1-.64.418-.152.85-.263 1.29-.33h-.07l7.89.93c.684.04 1.358.182 2 .42.638.256 1.217.64 1.7 1.13a9.623 9.623 0 0 1 1.24 1.75l1.2 1.9c.65 1 1.29 2 1.89 3a27.276 27.276 0 0 1 1.41 3.64c.088.29.145.588.17.89.005.259-.083.511-.25.71a1.44 1.44 0 0 1-1.41.47h-.27v.25c-.076.476-.18.946-.31 1.41-.085.412-.27.797-.54 1.12a.672.672 0 0 1-.21 0h-.32c-.21 0-.43-.1-.65-.16l-.64-.22-.15-.06-.31.11v.06a1.39 1.39 0 0 1-.17.24 1.65 1.65 0 0 1-1 .57c-.188.04-.382.04-.57 0a.883.883 0 0 1-.48-.2 3.242 3.242 0 0 1-.56-2.17v-.19h-.18l-5.2-.81h-.11a50.399 50.399 0 0 0-5.45 3.94c-.6.51-1.05.92-1.35 1.2-.191.09-.372.201-.54.33Z" fill="#EB996E"/><path d="m212.32 245.54-64.47.53c-2.1 0-4.09 1-4.41 3.07l-7 47h-33.26a1.939 1.939 0 0 0 0 3.87h106.08l7.25-49.6a4.23 4.23 0 0 0-.979-3.395 4.221 4.221 0 0 0-1.445-1.088 4.222 4.222 0 0 0-1.766-.387Z" fill="#E0E0E0"/><path d="M212.32 245.54c.336-.014.673.02 1 .1a4.267 4.267 0 0 1 3.26 3.69c.025.89-.056 1.779-.24 2.65l-.93 6.55c-1.42 9.85-3.46 24.05-6 41.51v.17h-.17l-102.91.06h-2.77a2.647 2.647 0 0 1-1.46-.28 2.197 2.197 0 0 1-1.137-1.92 2.19 2.19 0 0 1 1.137-1.92 2.68 2.68 0 0 1 1.46-.27h32.84l-.25.22c2.53-16.83 4.9-32.53 7-46.62a3.656 3.656 0 0 1 1.2-2.45c.7-.59 1.553-.968 2.46-1.09a20.895 20.895 0 0 1 2.6-.09h2.53l9.71-.06 17.25-.11 24.56-.13h8.84-2.27l-6.57.09-24.56.27-17.25.18-9.71.09h-2.53a23.226 23.226 0 0 0-2.53.09 4.352 4.352 0 0 0-2.25 1 3.187 3.187 0 0 0-1.05 2.2c-2.1 14.09-4.44 29.79-7 46.62v.22h-33a2.124 2.124 0 0 0-1.2.2 1.7 1.7 0 0 0-.77 2c.143.376.411.69.76.89.376.182.795.255 1.21.21h2.77l102.91.06-.2.17c2.59-17.45 4.69-31.64 6.15-41.49.37-2.45.7-4.64 1-6.53.186-.857.276-1.733.27-2.61a4.191 4.191 0 0 0-3.13-3.65 10.116 10.116 0 0 0-1.03-.02Z" fill="#263238"/><path d="M177.35 276.22a4.04 4.04 0 1 0 0-8.08 4.04 4.04 0 0 0 0 8.08Z" fill="#fff"/><path d="M139 299.57c.09 0 2.14-11.95 4.58-26.72s4.35-26.77 4.26-26.78c-.09-.01-2.15 11.95-4.59 26.72s-4.33 26.77-4.25 26.78Z" fill="#263238"/></svg>